<svg width="50" height="50" viewBox="0 0 50 50" fill="none" xmlns="http://www.w3.org/2000/svg">
<path d="M10.2803 15.6155C9.35508 16.523 9.1545 18.3649 9.70104 20.9554C9.72424 21.0651 9.75483 21.2672 9.77915 21.5302C11.6593 21.0981 14.3476 20.75 18.1327 20.75L18.2898 20.7507L18.4411 20.75C18.5677 20.75 18.6923 20.7507 18.8165 20.7514L18.9209 20.4427L13.542 20.4884L13.0554 17.9632L19.5412 18.3194L19.4364 19.6853C20.2119 19.1249 23.2344 17.4424 31.559 17.4424L31.7162 17.443L31.8675 17.4424C36.3585 17.4424 39.3057 17.9322 41.1903 18.4712C41.1996 17.1669 40.9048 16.1981 40.3105 15.6153L40.6002 15.0611L43.5822 14.7632V12.0152C43.5683 12.0147 43.555 12.0136 43.5406 12.0136H40.7324L39.0804 13.7273L37.1876 8.08708L37.1716 8.04585C37.1716 8.04585 34.7957 5.87793 25.4496 5.87793C25.3975 5.87793 25.3468 5.87833 25.2955 5.87854C25.2437 5.87844 25.1931 5.87793 25.1413 5.87793C15.7951 5.87793 13.4193 8.04585 13.4193 8.04585L13.4032 8.08708L11.5104 13.7273L9.85867 12.0136H7.0502C7.03582 12.0136 7.02255 12.0147 7.00867 12.0152V14.7632L9.99077 15.0611L10.2803 15.6155ZM15.0679 8.94401C15.322 8.78932 15.961 8.49827 17.433 8.236C19.3213 7.89946 21.9147 7.72887 25.1413 7.72887C25.1933 7.72887 25.2441 7.72897 25.2955 7.72917C25.3469 7.72897 25.3976 7.72887 25.4496 7.72887C28.6761 7.72887 31.2696 7.89946 33.1578 8.236C34.6297 8.49827 35.2688 8.78932 35.5231 8.94401L37.5251 14.9095H25.2955H13.0659L15.0679 8.94401Z" fill="#FE584A"/>
<path d="M33.5916 30.8195L36.5738 30.5217V27.7737C36.5599 27.7732 36.5464 27.7723 36.5321 27.7723H33.7238L32.0718 29.4858L30.179 23.8456L30.1628 23.8044C30.1628 23.8044 27.7871 21.6365 18.441 21.6365C18.3889 21.6365 18.3384 21.6369 18.2868 21.6371C18.2351 21.637 18.1846 21.6365 18.1326 21.6365C8.78645 21.6365 6.41066 23.8044 6.41066 23.8044L6.39445 23.8456L4.50177 29.4858L2.8499 27.7723H0.0416362C0.0272509 27.7723 0.01398 27.7732 0 27.7737V30.5217L2.9821 30.8195L3.27163 31.3739C2.34642 32.2814 2.14583 34.1233 2.69237 36.7137C2.73472 36.9142 2.80208 37.4214 2.80968 38.0494V43.9768C2.80968 44.0573 2.87482 44.1224 2.95526 44.1224H7.60048C7.68091 44.1224 7.74615 44.0573 7.74615 43.9768L7.74676 39.2311H18.2869H28.827L28.8277 43.9768C28.8277 44.0573 28.8929 44.1224 28.9734 44.1224H33.6186C33.6992 44.1224 33.7643 44.0573 33.7643 43.9768V38.0494C33.7718 37.4215 33.8391 36.9143 33.8816 36.7137C34.4282 34.1233 34.2275 32.2814 33.3023 31.3739L33.5916 30.8195ZM12.3701 36.1972L6.53344 36.2468L6.04687 33.7215L12.5326 34.0779L12.3701 36.1972ZM6.05731 30.668L8.05929 24.7024C8.31346 24.5477 8.95249 24.2567 10.4244 23.9943C12.3128 23.6578 14.9062 23.4872 18.1327 23.4872C18.1847 23.4872 18.2354 23.4874 18.2869 23.4875C18.3384 23.4874 18.3891 23.4872 18.4411 23.4872C21.6676 23.4872 24.2611 23.6578 26.1493 23.9943C27.6213 24.2567 28.2602 24.5477 28.5145 24.7024L30.5165 30.668H18.2869H6.05731ZM30.0404 36.2468L24.2037 36.1972L24.0412 34.0779L30.5269 33.7215L30.0404 36.2468Z" fill="#FE584A"/>
<path d="M50 27.2141V24.4661C49.9861 24.4656 49.9726 24.4646 49.9584 24.4646H47.15L45.4982 26.1782L43.6054 20.538L43.5892 20.4968C43.5892 20.4968 41.2135 18.3289 31.8674 18.3289C31.8153 18.3289 31.7646 18.3293 31.7133 18.3295C31.6616 18.3294 31.611 18.3289 31.5592 18.3289C22.2129 18.3289 19.8372 20.4968 19.8372 20.4968L19.8211 20.538L19.7451 20.7646C20.848 20.7892 21.8469 20.845 22.7511 20.9234C23.0528 20.845 23.4144 20.7646 23.8509 20.6868C25.7391 20.3503 28.3326 20.1797 31.5592 20.1797C31.6111 20.1797 31.6619 20.1798 31.7133 20.18C31.7647 20.1798 31.8156 20.1797 31.8674 20.1797C35.0939 20.1797 37.6874 20.3503 39.5756 20.6868C41.0477 20.9491 41.6866 21.2401 41.9407 21.3948L43.9429 27.3604H37.458L37.46 27.7737L37.4436 30.7704L43.9532 30.4141L43.4666 32.9393L37.63 32.8897L37.5093 31.3081L34.5557 31.6141C35.0794 32.647 35.2021 34.09 34.9247 35.9236H42.2535L42.2541 40.6693C42.2541 40.7497 42.3193 40.8149 42.3998 40.8149H47.045C47.1256 40.8149 47.1907 40.7496 47.1907 40.6693V34.7419C47.1984 34.114 47.2657 33.6069 47.308 33.4062C47.8547 30.8157 47.6541 28.9739 46.7288 28.0664L47.0181 27.5121L50 27.2141Z" fill="#FE584A"/>
</svg>
