<svg width="50" height="50" viewBox="0 0 50 50" fill="none" xmlns="http://www.w3.org/2000/svg">
<path d="M25.0001 14.0684L9.30768 27.0051C9.30768 27.0234 9.30309 27.0502 9.29392 27.0869C9.28493 27.1232 9.28015 27.1496 9.28015 27.1683V40.2681C9.28015 40.7411 9.45307 41.151 9.79883 41.4962C10.1445 41.8416 10.5538 42.0153 11.0269 42.0153H21.5065V31.5352H28.4938V42.0157H38.9733C39.4463 42.0157 39.8562 41.8423 40.2014 41.4962C40.5471 41.1514 40.7206 40.7412 40.7206 40.2681V27.1683C40.7206 27.0956 40.7107 27.0408 40.6931 27.0051L25.0001 14.0684Z" fill="#FE584A"/>
<path d="M46.6966 24.0576L40.7201 19.0905V7.95543C40.7201 7.70087 40.6382 7.49153 40.474 7.32768C40.3111 7.16403 40.1018 7.08221 39.8466 7.08221H34.6068C34.3519 7.08221 34.1427 7.16403 33.9787 7.32768C33.8152 7.49153 33.7334 7.70097 33.7334 7.95543V13.2772L27.0744 7.70957C26.4928 7.23649 25.8013 7 25.0007 7C24.2001 7 23.5087 7.23649 22.9266 7.70957L3.30327 24.0576C3.12136 24.2029 3.02166 24.3985 3.00311 24.6441C2.98466 24.8896 3.04823 25.104 3.19401 25.2858L4.88605 27.3055C5.03183 27.4691 5.22263 27.5692 5.45921 27.6058C5.67764 27.6242 5.89606 27.5603 6.11449 27.4148L25.0001 11.667L43.8859 27.4147C44.0318 27.5417 44.2225 27.605 44.4591 27.605H44.5411C44.7773 27.5691 44.9677 27.4683 45.1143 27.3051L46.8065 25.2857C46.952 25.1035 47.0157 24.8895 46.9968 24.6437C46.9782 24.3987 46.8781 24.2032 46.6966 24.0576Z" fill="#FE584A"/>
</svg>
