<svg width="44" height="37" viewBox="0 0 44 37" fill="none" xmlns="http://www.w3.org/2000/svg">
<path d="M43.5845 17.1414L23.8114 1.16923L22.714 0.257959C22.3 -0.0859864 21.6996 -0.0859864 21.2857 0.257959L15.5799 4.99638V2.99294C15.5799 2.37549 15.0792 1.87488 14.462 1.87488H10.1995C9.58218 1.87488 9.08156 2.37559 9.08156 2.99294V10.3734L0.411212 17.4473C-0.0670353 17.8376 -0.13865 18.5418 0.251796 19.0204C0.472918 19.2915 0.794398 19.4317 1.11863 19.4317C1.36712 19.4317 1.61718 19.3492 1.82525 19.1801L5.20751 16.4208V34.9311C5.20751 35.5486 5.70803 36.0492 6.32548 36.0492H18.2732C18.8908 36.0492 19.3914 35.5485 19.3914 34.9311V26.2564H24.6085V34.9311C24.6085 35.5486 25.1092 36.0492 25.7266 36.0492H37.6744C38.2919 36.0492 38.7924 35.5485 38.7924 34.9311V16.1455L42.179 18.8809C42.3858 19.0479 42.6345 19.1293 42.8812 19.1293C43.207 19.1293 43.5308 18.9874 43.7514 18.7139C44.1398 18.2334 44.0648 17.5294 43.5845 17.1414ZM11.3177 4.11101H13.3437V6.77585L11.3177 8.41573V4.11101ZM36.5564 14.6599V33.8129H26.8449V25.138C26.8449 24.5205 26.3442 24.02 25.7268 24.02H18.2733C17.6558 24.02 17.1554 24.5207 17.1554 25.138V33.8129H7.44375V14.6599L11.7905 11.05C11.7905 11.05 21.9684 2.71041 22.0334 2.59936L36.5564 14.6599Z" fill="#FE584A"/>
</svg>
