<svg width="42" height="42" viewBox="0 0 42 42" fill="none" xmlns="http://www.w3.org/2000/svg">
<path d="M20.8479 22.6308C20.8914 22.6308 20.9349 22.6308 20.9871 22.6308C21.0045 22.6308 21.0219 22.6308 21.0393 22.6308C21.0653 22.6308 21.1001 22.6308 21.1262 22.6308C23.6746 22.5873 25.7359 21.6914 27.2579 19.9781C30.6065 16.2034 30.0498 9.73245 29.9889 9.11493C29.7715 4.47919 27.5797 2.26134 25.7707 1.22634C24.4226 0.452268 22.8483 0.0347898 21.0914 0H21.0306C21.0219 0 21.0045 0 20.9958 0H20.9436C19.9782 0 18.0821 0.156554 16.2644 1.19155C14.4379 2.22655 12.2113 4.4444 11.9939 9.11493C11.933 9.73245 11.3764 16.2034 14.7249 19.9781C16.2383 21.6914 18.2996 22.5873 20.8479 22.6308ZM14.3161 9.33237C14.3161 9.30628 14.3248 9.28018 14.3248 9.26279C14.6118 3.02671 19.0388 2.35701 20.9349 2.35701H20.9697C20.9871 2.35701 21.0132 2.35701 21.0393 2.35701C23.3876 2.40919 27.3797 3.36591 27.6493 9.26279C27.6493 9.28888 27.6493 9.31497 27.658 9.33237C27.6667 9.39325 28.2755 15.3075 25.5097 18.4212C24.4139 19.6562 22.9527 20.2651 21.0306 20.2825C21.0132 20.2825 21.0045 20.2825 20.9871 20.2825C20.9697 20.2825 20.961 20.2825 20.9436 20.2825C19.0301 20.2651 17.5603 19.6562 16.4731 18.4212C13.716 15.3249 14.3074 9.38455 14.3161 9.33237Z" fill="#FE584A"/>
<path d="M38.8603 33.3634C38.8603 33.3547 38.8603 33.346 38.8603 33.3373C38.8603 33.2677 38.8516 33.1982 38.8516 33.1199C38.7994 31.3978 38.6863 27.3709 34.9116 26.0836C34.8855 26.0749 34.8507 26.0662 34.8246 26.0575C30.9021 25.0573 27.6405 22.796 27.6058 22.7699C27.0752 22.3959 26.3446 22.5264 25.9706 23.0569C25.5966 23.5875 25.7271 24.3181 26.2576 24.692C26.4055 24.7964 29.8671 27.2056 34.1984 28.3189C36.2249 29.0408 36.4511 31.2064 36.5119 33.1895C36.5119 33.2677 36.5119 33.3373 36.5206 33.4069C36.5293 34.1897 36.4772 35.3986 36.338 36.0944C34.929 36.8946 29.4061 39.6604 21.0044 39.6604C12.6374 39.6604 7.07976 36.8859 5.66208 36.0857C5.52292 35.3899 5.46204 34.181 5.47943 33.3982C5.47943 33.3286 5.48813 33.259 5.48813 33.1808C5.54901 31.1977 5.77515 29.0321 7.80165 28.3102C12.133 27.1969 15.5946 24.779 15.7424 24.6833C16.273 24.3094 16.4034 23.5788 16.0294 23.0482C15.6555 22.5177 14.9249 22.3872 14.3943 22.7612C14.3595 22.7873 11.1154 25.0486 7.17544 26.0488C7.14065 26.0575 7.11455 26.0662 7.08846 26.0749C3.31377 27.3709 3.2007 31.3978 3.14852 33.1112C3.14852 33.1895 3.14852 33.259 3.13982 33.3286C3.13982 33.3373 3.13982 33.346 3.13982 33.3547C3.13112 33.807 3.12242 36.1292 3.58339 37.2947C3.67036 37.5208 3.82692 37.7121 4.03566 37.8426C4.29658 38.0165 10.55 42 21.0131 42C31.4761 42 37.7296 38.0079 37.9905 37.8426C38.1906 37.7121 38.3558 37.5208 38.4428 37.2947C38.8777 36.1379 38.869 33.8157 38.8603 33.3634Z" fill="#FE584A"/>
</svg>
