<svg width="50" height="50" viewBox="0 0 50 50" fill="none" xmlns="http://www.w3.org/2000/svg">
<path d="M39.4632 8.76571H41.8627C42.8123 8.76571 43.5817 7.9963 43.5817 7.04676V5.71895C43.5817 4.76941 42.8123 4 41.8627 4H8.71895C7.76941 4 7 4.76941 7 5.71895V7.04676C7 7.9963 7.76941 8.76571 8.71895 8.76571H11.1172C11.2987 15.1436 13.8436 20.9695 17.7769 24.2993C13.7497 27.7089 11.1816 33.7123 11.116 40.3038H8.71895C7.76941 40.3038 7 41.0732 7 42.0227V43.2811C7 44.2293 7.76941 45 8.71895 45H41.8627C42.8123 45 43.5817 44.2293 43.5817 43.2811V42.0227C43.5817 41.0732 42.8123 40.3038 41.8627 40.3038H39.4683C39.4027 33.7149 36.832 27.7114 32.8061 24.2993C36.7368 20.9708 39.2817 15.1436 39.4632 8.76571ZM28.29 25.7377L28.9333 26.0671C33.2963 28.2004 36.2363 33.8564 36.3109 40.3051H14.2682C14.3454 33.8539 17.2892 28.2004 21.6497 26.0671L22.2904 25.7429C22.8488 25.4714 23.2013 24.9027 23.2013 24.28C23.2013 23.6611 22.8488 23.0898 22.2904 22.8158L21.6497 22.5109C17.3935 20.4304 14.4844 14.9326 14.2721 8.76571H36.3109C36.0973 14.9326 33.1869 20.4278 28.9346 22.5096L28.2913 22.8197C27.7342 23.0924 27.3842 23.656 27.3842 24.2774C27.3829 24.8989 27.7355 25.4637 28.29 25.7377Z" fill="#FE584A"/>
<path d="M18.2968 38.6891H33.2115C32.7019 35.0454 29.5754 32.1685 25.7554 32.1685C21.9328 32.1685 18.8088 35.0454 18.2968 38.6891Z" fill="#FE584A"/>
<path d="M30.8684 19.0691H19.6875C21.0616 20.6092 23.0405 21.6038 25.2779 21.6038C27.5154 21.6038 29.4917 20.6105 30.8684 19.0691Z" fill="#FE584A"/>
</svg>
