<svg width="50" height="50" viewBox="0 0 50 50" fill="none" xmlns="http://www.w3.org/2000/svg">
<path d="M32.7153 36.5381C33.4694 36.5381 34.0807 35.9267 34.0807 35.1726C34.0807 34.4185 33.4694 33.8071 32.7153 33.8071C31.9611 33.8071 31.3498 34.4185 31.3498 35.1726C31.3498 35.9267 31.9611 36.5381 32.7153 36.5381Z" fill="#FE584A"/>
<path d="M29.5743 18.9224C30.3284 18.9224 30.9398 18.311 30.9398 17.5569C30.9398 16.8028 30.3284 16.1914 29.5743 16.1914C28.8201 16.1914 28.2088 16.8028 28.2088 17.5569C28.2088 18.311 28.8201 18.9224 29.5743 18.9224Z" fill="#FE584A"/>
<path d="M41.5916 28.3449H42.9571V20.1519H39.475C37.9692 20.1519 36.744 18.9267 36.744 17.4208C36.744 16.399 37.3083 15.4704 38.2168 14.9973L39.3798 14.3916L35.9026 7L8.03199 20.1458L8.03486 20.1519H8V28.3449H9.36555C10.8714 28.3449 12.0966 29.5701 12.0966 31.076C12.0966 32.5819 10.8714 33.807 9.36555 33.807H8V42H42.957V33.8069H41.5915C40.0856 33.8069 38.8605 32.5818 38.8605 31.0759C38.8605 29.5701 40.0856 28.3449 41.5916 28.3449ZM26.5821 14.4159C26.9136 15.0743 27.7103 15.3533 28.3815 15.0376C29.0535 14.7215 29.3465 13.9282 29.0488 13.2524L34.5951 10.6364L35.8601 13.3253C34.6981 14.348 34.0129 15.8277 34.0129 17.4209C34.0129 18.4154 34.2814 19.3478 34.7478 20.1519H14.421L26.5821 14.4159ZM40.226 36.3651V39.269H34.0812C34.0812 38.5148 33.4699 37.9035 32.7157 37.9035C31.9616 37.9035 31.3503 38.5148 31.3503 39.269H10.731V36.3651C13.0842 35.7573 14.8275 33.6163 14.8275 31.0759C14.8275 28.5355 13.0842 26.3944 10.731 25.7867V22.8828H31.3502C31.3502 23.637 31.9615 24.2483 32.7157 24.2483C33.4698 24.2483 34.0812 23.637 34.0812 22.8828H40.2259V25.7867C37.8727 26.3945 36.1294 28.5355 36.1294 31.0759C36.1295 33.6164 37.8728 35.7573 40.226 36.3651Z" fill="#FE584A"/>
<path d="M32.7153 28.3447C33.4694 28.3447 34.0807 27.7334 34.0807 26.9792C34.0807 26.2251 33.4694 25.6138 32.7153 25.6138C31.9611 25.6138 31.3498 26.2251 31.3498 26.9792C31.3498 27.7334 31.9611 28.3447 32.7153 28.3447Z" fill="#FE584A"/>
<path d="M32.7153 32.4414C33.4694 32.4414 34.0807 31.8301 34.0807 31.0759C34.0807 30.3218 33.4694 29.7104 32.7153 29.7104C31.9611 29.7104 31.3498 30.3218 31.3498 31.0759C31.3498 31.8301 31.9611 32.4414 32.7153 32.4414Z" fill="#FE584A"/>
</svg>
