<svg width="50" height="50" viewBox="0 0 50 50" fill="none" xmlns="http://www.w3.org/2000/svg">
<path d="M42.2461 14.8142C42.2245 13.6803 42.2039 12.609 42.2039 11.5727C42.2039 10.7608 41.5459 10.1026 40.7338 10.1026C34.4467 10.1026 29.6598 8.29576 25.6698 4.41626C25.099 3.86115 24.1906 3.86134 23.62 4.41626C19.6304 8.29576 14.8443 10.1026 8.55756 10.1026C7.74567 10.1026 7.08746 10.7608 7.08746 11.5727C7.08746 12.6092 7.06707 13.6809 7.04531 14.815C6.84381 25.3676 6.56783 39.8199 24.1634 45.9188C24.3194 45.9729 24.4821 46 24.6448 46C24.8075 46 24.9704 45.9729 25.1262 45.9188C42.7232 39.8197 42.4476 25.367 42.2461 14.8142ZM24.645 42.9698C9.55449 37.4879 9.78265 25.4791 9.98513 14.871C9.99728 14.2344 10.009 13.6173 10.0173 13.0124C15.9055 12.7639 20.6142 10.9796 24.645 7.46819C28.6762 10.9796 33.3856 12.7641 39.2743 13.0124C39.2825 13.6171 39.2943 14.2338 39.3064 14.8701C39.5087 25.4785 39.7367 37.4877 24.645 42.9698Z" fill="#FE584A"/>
<path d="M29.7074 19.8931L22.6119 26.9883L19.5841 23.9604C19.01 23.3865 18.0791 23.3865 17.5052 23.9604C16.9311 24.5347 16.9311 25.4654 17.5052 26.0395L21.5725 30.1068C21.8594 30.3938 22.2358 30.5373 22.6119 30.5373C22.9881 30.5373 23.3644 30.3938 23.6514 30.1068L31.7862 21.9723C32.3605 21.3981 32.3605 20.4673 31.7863 19.8933C31.2124 19.3192 30.2816 19.319 29.7074 19.8931Z" fill="#FE584A"/>
</svg>
