<svg width="38" height="38" viewBox="0 0 38 38" fill="none" xmlns="http://www.w3.org/2000/svg">
<path d="M37.8355 1.14544C37.7781 0.627937 37.3696 0.219154 36.8518 0.161751C28.0418 -0.816719 20.5318 2.70751 14.4059 9.0135C12.6527 10.8182 11.1321 12.7285 9.83417 14.5721C7.63747 14.4828 5.20188 15.4766 3.47513 17.2034L0.326055 20.3524C-0.0302528 20.7087 -0.102732 21.2602 0.149206 21.6965C0.401144 22.1328 0.914587 22.3453 1.40165 22.2152C2.13224 22.0189 3.31945 21.7907 4.45998 21.7377C4.87688 21.7182 5.22333 21.7243 5.51122 21.7464C4.81629 23.0829 4.28371 24.2025 4.10715 24.4829C3.83057 24.923 3.89464 25.4956 4.26226 25.8632L6.08439 27.6853C3.43252 31.302 3.38874 33.1543 3.39802 33.4167C3.41744 33.9725 3.85087 34.4931 4.5687 34.4931C5.19028 34.4931 6.97298 34.2293 10.2183 31.8192L12.135 33.7359C12.5052 34.1061 13.0836 34.1681 13.5242 33.8852C13.824 33.6924 14.8779 33.1821 16.1416 32.5217C16.1625 33.4636 16.0346 34.8468 15.7572 36.7217C15.5995 37.7851 16.8922 38.4253 17.6457 37.6721L20.7948 34.523C22.4186 32.8992 23.3603 30.4874 23.2907 28.2248C25.2328 26.8677 27.2533 25.2668 29.1397 23.4169C35.3857 17.2918 38.8015 9.8386 37.8355 1.14544ZM35.7058 2.29119C35.8835 4.6917 35.6939 7.01858 35.1416 9.27036C33.77 8.83839 32.4291 7.9898 31.2182 6.77911C30.0028 5.56348 29.1525 4.21711 28.7223 2.84058C30.9732 2.29641 33.3015 2.11202 35.7058 2.29119ZM4.31473 19.5128L5.04938 18.7779C5.93798 17.8896 7.09359 17.2497 8.24282 16.9622C7.6424 17.9151 7.10721 18.8252 6.63523 19.665C5.90609 19.5041 5.09548 19.4743 4.31473 19.5128ZM6.42156 24.8737C6.66248 24.3982 6.95385 23.8022 7.48874 22.7915L8.95428 24.2573C8.40894 24.8424 7.91666 25.3982 7.47309 25.9249L6.42156 24.8737ZM11.8659 24.4478C12.6771 23.6369 13.4549 23.4888 14.4212 23.4679C14.4001 24.4095 14.249 25.2138 13.4404 26.0223C9.98406 29.4787 7.61486 31.0223 6.19803 31.7111C6.89702 30.267 8.4446 27.8691 11.8659 24.4478ZM13.1181 31.5702L11.97 30.4218C12.4942 29.9765 13.0482 29.4828 13.6327 28.9354L15.1927 30.4955C14.167 31.0431 13.7391 31.2493 13.1181 31.5702ZM19.2199 32.9485L18.3287 33.84C18.4009 32.76 18.376 31.9732 18.2739 31.3661C19.0927 30.9051 19.9818 30.3824 20.9136 29.7976C20.6481 30.9747 20.0511 32.1176 19.2199 32.9485ZM17.2195 29.3735L15.2234 27.3771C16.7006 25.7519 16.6455 24.1857 16.6455 22.3561C16.6455 21.7411 16.1471 21.2428 15.5322 21.2428C13.8229 21.2428 12.1779 21.1512 10.5111 22.6651L8.60493 20.7589C13.8101 11.6314 19.8267 5.85282 26.5867 3.47318C27.1219 5.20486 28.1636 6.87333 29.6439 8.35365C31.1173 9.82729 32.7779 10.8664 34.502 11.4036C32.1085 18.1265 26.3313 24.1393 17.2195 29.3735Z" fill="#FE584A"/>
<path d="M28.0694 9.92779C25.8988 7.75747 22.367 7.75747 20.1967 9.92779C18.0264 12.0984 18.0264 15.6302 20.1967 17.8005C22.367 19.9708 25.8988 19.9711 28.0694 17.8005C30.2397 15.6302 30.2397 12.0984 28.0694 9.92779ZM26.4949 16.2259C25.1926 17.5282 23.0733 17.5282 21.7712 16.2259C20.4689 14.9236 20.4689 12.8046 21.7712 11.5023C23.0733 10.2003 25.1923 10.2 26.4949 11.5023C27.7972 12.8046 27.7972 14.9236 26.4949 16.2259Z" fill="#FE584A"/>
</svg>
