<svg width="50" height="50" viewBox="0 0 50 50" fill="none" xmlns="http://www.w3.org/2000/svg">
<path d="M11.0971 30.1274C10.9204 30.6428 10.9892 31.2657 11.2677 31.673L11.4914 32C12.1376 30.8806 12.8907 29.6657 13.8042 28.3308C13.8688 28.2364 13.9352 28.1908 14 28.1038L12.5611 26C11.7245 28.2117 11.2367 29.7228 11.0971 30.1274Z" fill="#FE584A"/>
<path d="M20.6072 35.254C19.2893 36.4416 18.0961 37.4204 17 38.2593L17.4361 38.6523C17.8407 39.0169 18.4599 39.1046 18.969 38.8686C19.651 38.5519 20.7234 38.0971 23 36.9545L20.8311 35C20.7454 35.0843 20.7005 35.1702 20.6072 35.254Z" fill="#FE584A"/>
<path d="M19.6686 29.3281C18.9003 28.5609 16.7395 29.2488 15.7244 30.262C12.3287 33.6526 10.7951 36.0564 10.1064 37.4758C9.90902 37.8825 9.99126 38.3693 10.3113 38.6889C10.632 39.0094 11.1204 39.0906 11.528 38.8935C12.9176 38.2198 15.2958 36.6956 18.7319 33.265C19.8481 32.15 20.3988 30.0574 19.6695 29.329L19.6686 29.3281Z" fill="#FE584A"/>
<path d="M8.40092 19.7647L5.31916 23.0294C4.97072 23.3986 4.89921 23.97 5.14607 24.4227C5.38697 24.8694 5.89147 25.0969 6.37157 24.9608C8.03716 24.4876 9.50271 24.2877 10.4896 24.5559C11.8935 21.9115 13.4022 19.4773 15 17.2662C14.0758 16.6385 11.0219 16.9881 8.40092 19.7647Z" fill="#FE584A"/>
<path d="M24.5659 43.8812C24.962 44.0968 25.4417 44.0135 25.7553 43.6756L28.6643 40.5448C30.9163 38.1202 31.3127 34.9919 30.8017 34C28.6046 35.7823 26.3788 37.2874 24.3021 38.5474C24.4454 39.4182 24.3501 40.2632 24.0113 42.7307C23.9452 43.2084 24.1744 43.6705 24.5659 43.8812Z" fill="#FE584A"/>
<path d="M28.0238 16.0241C26.6587 17.3895 26.6587 19.6105 28.0238 20.9759C29.3892 22.3414 31.6106 22.3414 32.976 20.9759C34.3413 19.6105 34.3413 17.3895 32.976 16.0241C31.6106 14.6586 29.3892 14.6586 28.0238 16.0241Z" fill="#FE584A"/>
<path d="M43.936 6.06134C43.8969 5.52326 43.469 5.09795 42.9333 5.05771C40.2643 4.85653 37.6058 5.18522 35 5.98314C35.1961 7.77562 36.1221 9.71544 37.7029 11.2982C39.3027 12.8997 41.2927 13.8266 43.115 14C43.8168 11.5374 44.1496 8.89996 43.936 6.06134Z" fill="#FE584A"/>
<path d="M35.5821 13.2807C33.7215 11.4154 32.5853 9.17821 32.2208 7C25.5065 9.76056 19.079 15.789 14 24.2578L16.5234 26.7875C18.2474 26.0857 20.3404 25.9004 21.6679 27.2309C22.9971 28.5637 22.8087 30.6611 22.109 32.3871L24.7154 35C31.215 31.073 38.7822 24.886 42 16.6545C39.7742 16.3174 37.473 15.1763 35.5821 13.2807ZM34.0005 22.7919C31.821 24.9768 28.2741 24.9768 26.0944 22.7919C23.9146 20.6067 23.9146 17.0506 26.0944 14.8657C28.2741 12.6808 31.821 12.6808 34.0005 14.8657C36.1802 17.0509 36.1802 20.6067 34.0005 22.7919Z" fill="#FE584A"/>
</svg>
