<svg width="25" height="25" viewBox="0 0 25 25" fill="none" xmlns="http://www.w3.org/2000/svg">
<g clip-path="url(#clip0)">
<path d="M23.5947 10.5396L23.6337 10.5482H6.90488L12.1638 5.27764C12.4213 5.02032 12.5626 4.67174 12.5626 4.30589C12.5626 3.94003 12.4213 3.5939 12.1638 3.33597L11.3455 2.51727C11.0882 2.25995 10.7453 2.11768 10.3797 2.11768C10.0138 2.11768 9.67074 2.25894 9.41342 2.51625L0.398583 11.5303C0.140249 11.7886 -0.00101081 12.1327 5.4454e-06 12.4988C-0.00101081 12.8669 0.140249 13.2112 0.398583 13.4691L9.41342 22.4839C9.67074 22.7411 10.0136 22.8825 10.3797 22.8825C10.7453 22.8825 11.0882 22.7408 11.3455 22.4839L12.1638 21.6652C12.4213 21.4083 12.5626 21.0652 12.5626 20.6994C12.5626 20.3337 12.4213 20.0087 12.1638 19.7516L6.84553 14.4516H23.6134C24.3669 14.4516 25 13.8022 25 13.0492V11.8913C25 11.1382 24.3482 10.5396 23.5947 10.5396Z" fill="#222222"/>
</g>
<defs>
<clipPath id="clip0">
<rect width="25" height="25" fill="white"/>
</clipPath>
</defs>
</svg>
