<svg width="528" height="299" viewBox="0 0 528 299" fill="none" xmlns="http://www.w3.org/2000/svg">
<path d="M427.497 290.221C425.403 290.221 423.309 289.455 421.675 287.906L323.709 196.001C320.287 192.8 320.117 187.403 323.334 183.981C326.552 180.525 331.915 180.372 335.372 183.607L433.337 275.511C436.759 278.712 436.93 284.109 433.712 287.531C432.026 289.319 429.779 290.221 427.497 290.221Z" fill="#F7F7F7"/>
<path d="M100.485 290.217C98.2209 290.217 95.9564 289.314 94.2709 287.527C91.0531 284.104 91.2233 278.707 94.6455 275.506L192.645 183.602C196.084 180.401 201.482 180.537 204.682 183.976C207.9 187.399 207.73 192.796 204.308 195.996L106.308 287.901C104.674 289.45 102.579 290.217 100.485 290.217Z" fill="#F7F7F7"/>
<path d="M485.436 375.673H42.5642C19.1028 375.673 0 356.587 0 333.109V42.8723C0 19.3939 19.1028 0.308105 42.5642 0.308105H485.436C508.897 0.308105 528 19.3939 528 42.8723V333.109C528 356.587 508.897 375.673 485.436 375.673ZM42.5642 17.3338C28.4839 17.3338 17.0257 28.792 17.0257 42.8723V333.109C17.0257 347.189 28.4839 358.647 42.5642 358.647H485.436C499.516 358.647 510.974 347.189 510.974 333.109V42.8723C510.974 28.792 499.516 17.3338 485.436 17.3338H42.5642Z" fill="#F7F7F7"/>
<path d="M264 230.769C252.678 230.769 241.356 227.006 232.741 219.498L14.1314 28.7936C10.59 25.7119 10.2155 20.3318 13.2971 16.7735C16.4128 13.2321 21.7759 12.9086 25.3172 15.9562L243.927 206.644C254.806 216.127 273.194 216.127 284.056 206.644L502.393 16.2627C505.918 13.181 511.281 13.5216 514.414 17.0799C517.495 20.6383 517.138 26.0014 513.596 29.1L295.259 219.481C286.627 227.006 275.322 230.769 264 230.769Z" fill="#F7F7F7"/>
</svg>
