<svg width="152" height="60" viewBox="0 0 152 60" fill="none" xmlns="http://www.w3.org/2000/svg">
<path d="M64.0297 45.1064L60.9132 38.8653L51.9887 20.8511L48.4473 27.8014L60.205 51.4894H67.2879L64.0297 45.1064Z" fill="url(#paint0_linear)"/>
<path d="M64.0298 45.1064L60.9133 38.8653H53.972H46.8891L50.0056 45.1064H64.0298Z" fill="url(#paint1_linear)"/>
<path d="M48.4473 13.7589L29.7484 51.4894H36.4063H36.548L39.8061 45.1064L42.9226 38.8653L51.9888 20.8511L48.4473 13.7589Z" fill="url(#paint2_linear)"/>
<path d="M10.1994 17.4468C10.3411 15.8865 11.0494 14.6099 12.041 13.7589H7.93286L10.1994 17.7305C10.1994 17.5887 10.1994 17.5887 10.1994 17.4468Z" fill="url(#paint3_linear)"/>
<path d="M36.548 51.4894L33.0065 44.6809L29.1817 37.8724C29.1817 37.8724 27.6235 38.4397 25.9236 38.7234C24.082 39.0071 22.6654 38.7234 22.3821 38.7234L29.7483 51.4894H36.548Z" fill="url(#paint4_linear)"/>
<path d="M13.8825 20.1418C14.0242 19.5745 14.4492 18.8653 14.8741 18.4397C16.7157 16.4539 17.9906 15.6028 20.2572 14.7518C21.8154 14.1844 21.9571 14.1844 23.5153 13.9007C23.7987 13.9007 25.6402 13.7589 25.9235 13.7589C25.4986 13.7589 24.9319 13.617 24.3653 13.617H7.93286L11.191 19.1489L11.8993 19.8582H13.8825V20.1418Z" fill="url(#paint5_linear)"/>
<path d="M13.4576 20.1418H24.3653C26.0652 20.1418 27.4818 20.7092 28.7568 21.9858C30.0317 23.2624 30.5983 24.6809 30.5983 26.383C30.5983 28.0851 30.0317 29.6454 28.7568 30.922C27.4818 32.1986 26.0652 32.766 24.3653 32.766H18.8406L22.3821 38.8653C23.0904 39.0071 23.657 39.0071 24.3653 39.0071C27.1985 39.0071 29.7484 38.156 31.7316 36.5958C31.8732 36.5958 31.8732 36.4539 32.0149 36.4539C32.1566 36.4539 32.1566 36.3121 32.2982 36.3121C33.1482 35.6028 33.9981 34.6099 34.7064 33.617C36.2647 31.4894 36.973 29.078 36.973 26.5248C36.973 25.5319 36.8313 24.6809 36.6896 23.8298C36.4063 22.5532 35.8397 21.2766 35.2731 20.1418C34.7064 19.2908 34.1398 18.4397 33.2898 17.7305C32.8649 17.305 32.4399 16.8794 32.0149 16.5957C29.89 15.0355 27.3402 14.0426 24.507 14.0426C19.6906 13.7589 15.7241 16.3121 13.4576 20.1418Z" fill="url(#paint6_linear)"/>
<path d="M79.1872 30.3546H76.3541L72.246 24.8227H70.4044V30.3546H67.8546V14.0426H69.9794H72.6709C74.7958 14.0426 76.0708 14.8936 76.779 15.6028C77.629 16.5957 78.054 17.8723 78.054 19.4326C78.054 20.9929 77.629 22.2695 76.779 23.1206C76.3541 23.5461 75.7874 24.1135 74.9375 24.3972L79.1872 30.3546ZM72.5293 22.5532C73.5209 22.5532 74.3709 22.2695 74.9375 21.7021C75.5041 20.9929 75.6458 20.1418 75.6458 19.4326C75.6458 18.7234 75.5041 17.8723 74.9375 17.1631C74.3709 16.5957 73.6626 16.3121 72.5293 16.3121H70.2627V22.5532H72.5293Z" fill="#0091D6"/>
<path d="M84.287 20.7092H90.2366V22.9787H84.287V28.0851H91.5116V30.3546H84.287H81.7371V14.0426H84.287H91.5116V16.3121H84.287V20.7092Z" fill="#0091D6"/>
<path d="M97.0363 19.8582V30.3546H94.4864V13.3333L104.686 24.539V14.0426H107.236V31.0638L97.0363 19.8582Z" fill="#0091D6"/>
<path d="M121.118 16.3121H116.585V30.3546H114.035V16.3121H109.502V14.0426H120.977V16.3121H121.118Z" fill="#0091D6"/>
<path d="M130.043 26.8085H124.235L122.818 30.3546H119.985L127.068 13.3333L134.151 30.3546H131.318L130.043 26.8085ZM129.193 24.539L127.21 19.5745L125.226 24.539H129.193Z" fill="#0091D6"/>
<path d="M145.625 30.3546H138.826H136.276V14.0426H138.826V27.9433H145.625V30.3546Z" fill="#0091D6"/>
<path d="M87.4035 48.0851H81.5954L80.1789 51.6312H77.3457L84.4286 34.6099L91.5116 51.6312H88.6784L87.4035 48.0851ZM86.4119 45.8156L84.4286 40.8511L82.4454 45.8156H86.4119Z" fill="#F92E1D"/>
<path d="M95.6197 50.2128C95.0531 49.7872 94.4864 49.078 94.2031 48.5106C93.7781 47.8014 93.6365 46.9503 93.6365 46.0993V35.3191H96.1863V46.0993C96.1863 47.0922 96.4697 47.8014 97.1779 48.3688C97.7446 48.7943 98.7362 49.078 99.5862 49.078C100.578 49.078 101.428 48.7943 101.994 48.3688C102.703 47.8014 102.986 47.0922 102.986 46.0993V35.3191H105.536V46.0993C105.536 46.9503 105.394 47.8014 104.969 48.5106C104.686 49.2199 104.119 49.7872 103.553 50.2128C102.419 51.0638 101.003 51.4894 99.5862 51.4894C98.0279 51.4894 96.6113 51.0638 95.6197 50.2128Z" fill="#F92E1D"/>
<path d="M119.277 37.5886H114.744V51.6312H112.194V37.5886H107.661V35.3191H119.135V37.5886H119.277Z" fill="#F92E1D"/>
<path d="M124.801 50.922C123.81 50.4964 122.96 49.9291 122.252 49.2198C121.543 48.5106 120.977 47.6596 120.552 46.6667C120.127 45.6737 119.985 44.539 119.985 43.5461C119.985 42.5532 120.268 41.4184 120.552 40.4255C120.977 39.4326 121.543 38.5816 122.252 37.8723C122.96 37.1631 123.81 36.5957 124.801 36.1702C125.793 35.7447 126.926 35.6028 127.918 35.6028C129.051 35.6028 130.043 35.8865 131.034 36.1702C132.026 36.5957 132.876 37.1631 133.584 37.8723C134.293 38.5816 134.859 39.4326 135.284 40.4255C135.709 41.4184 135.851 42.5532 135.851 43.5461C135.851 44.539 135.567 45.6737 135.284 46.6667C134.859 47.6596 134.293 48.5106 133.584 49.2198C132.876 49.9291 132.026 50.4964 131.034 50.922C130.043 51.3475 128.91 51.4893 127.918 51.4893C126.785 51.4893 125.793 51.3475 124.801 50.922ZM123.951 39.4326C122.96 40.4255 122.252 41.844 122.252 43.4042C122.252 44.9645 122.818 46.2411 123.951 47.3759C124.943 48.3688 126.36 49.078 127.918 49.078C129.476 49.078 130.751 48.5106 131.884 47.3759C132.876 46.383 133.584 44.9645 133.584 43.4042C133.584 41.844 133.018 40.5674 131.884 39.4326C130.893 38.4397 129.476 37.7305 127.918 37.7305C126.36 37.7305 124.943 38.4397 123.951 39.4326Z" fill="#F92E1D"/>
<defs>
<linearGradient id="paint0_linear" x1="46.7805" y1="33.2657" x2="70.5596" y2="40.5262" gradientUnits="userSpaceOnUse">
<stop stop-color="#5C120C"/>
<stop offset="0.1989" stop-color="#AC1917"/>
<stop offset="1" stop-color="#FF9378"/>
</linearGradient>
<linearGradient id="paint1_linear" x1="46.7392" y1="39.3593" x2="64.2264" y2="44.6986" gradientUnits="userSpaceOnUse">
<stop stop-color="#EF7B5C"/>
<stop offset="0.2843" stop-color="#FF6E51"/>
<stop offset="0.6877" stop-color="#D21216"/>
<stop offset="0.8565" stop-color="#AE1815"/>
<stop offset="1" stop-color="#941914"/>
</linearGradient>
<linearGradient id="paint2_linear" x1="24.7791" y1="40.8813" x2="54.7843" y2="26.9079" gradientUnits="userSpaceOnUse">
<stop stop-color="#E73A23"/>
<stop offset="0.2839" stop-color="#F6AD80"/>
<stop offset="0.8331" stop-color="#DF2C1B"/>
<stop offset="0.8867" stop-color="#DD1814"/>
<stop offset="0.9571" stop-color="#A61A14"/>
<stop offset="1" stop-color="#8B1812"/>
</linearGradient>
<linearGradient id="paint3_linear" x1="7.86911" y1="15.757" x2="36.8647" y2="15.757" gradientUnits="userSpaceOnUse">
<stop stop-color="#71D1DC"/>
<stop offset="0.6278" stop-color="#277FB6"/>
<stop offset="1" stop-color="#0053A2"/>
</linearGradient>
<linearGradient id="paint4_linear" x1="21.2728" y1="16.4931" x2="33.2976" y2="58.3742" gradientUnits="userSpaceOnUse">
<stop offset="0.3369" stop-color="#110605"/>
<stop offset="0.4844" stop-color="#2A2E6D"/>
<stop offset="0.5103" stop-color="#303D7A"/>
<stop offset="0.5543" stop-color="#365A92"/>
<stop offset="0.6007" stop-color="#3F76AB"/>
<stop offset="0.6489" stop-color="#498FC1"/>
<stop offset="0.6991" stop-color="#54A4D3"/>
<stop offset="0.7521" stop-color="#5EB4E1"/>
<stop offset="0.8091" stop-color="#66C0EB"/>
<stop offset="0.8732" stop-color="#6AC7F1"/>
<stop offset="0.9585" stop-color="#6CC9F3"/>
</linearGradient>
<linearGradient id="paint5_linear" x1="7.86911" y1="16.9329" x2="25.8626" y2="16.9329" gradientUnits="userSpaceOnUse">
<stop stop-color="#71D1DC"/>
<stop offset="0.4342" stop-color="#2B8ABD"/>
<stop offset="0.7303" stop-color="#005EAA"/>
<stop offset="1" stop-color="#264194"/>
</linearGradient>
<linearGradient id="paint6_linear" x1="13.494" y1="26.3244" x2="36.8647" y2="26.3244" gradientUnits="userSpaceOnUse">
<stop stop-color="#DAF2F4"/>
<stop offset="0.0978334" stop-color="#C4EBEF"/>
<stop offset="0.3016" stop-color="#8AD9E2"/>
<stop offset="0.3812" stop-color="#71D1DC"/>
<stop offset="0.6754" stop-color="#277FB6"/>
<stop offset="0.8498" stop-color="#0053A2"/>
<stop offset="1" stop-color="#1A3F92"/>
</linearGradient>
</defs>
</svg>
