<svg width="23" height="27" viewBox="0 0 23 27" fill="none" xmlns="http://www.w3.org/2000/svg">
<path d="M22.3987 8.01553C22.1644 7.4531 21.8833 7.00796 21.5551 6.6798L16.0706 1.19518C15.7423 0.867321 15.2973 0.585951 14.7348 0.351435C14.1725 0.117166 13.6568 0 13.1883 0H1.93754C1.46888 0 1.0704 0.163958 0.742304 0.49212C0.414142 0.820098 0.250122 1.21857 0.250122 1.68742V25.3126C0.250122 25.7816 0.414142 26.18 0.742304 26.5081C1.07047 26.8359 1.46888 27.0001 1.9376 27.0001H21.0629C21.5315 27.0001 21.9298 26.8359 22.2578 26.5081C22.5858 26.1798 22.75 25.7816 22.75 25.3126V9.56245C22.7502 9.09367 22.633 8.57797 22.3987 8.01553ZM13.7503 2.39047C14.09 2.50764 14.3302 2.63669 14.4709 2.77713L19.9731 8.27929C20.1134 8.42004 20.2424 8.66016 20.3595 9.00002H13.7503V2.39047ZM20.5003 24.7501H2.50003V2.25004H11.5001V9.56264C11.5001 10.0314 11.664 10.4298 11.9921 10.7579C12.3204 11.0859 12.7186 11.2501 13.1876 11.2501H20.5003V24.7501Z" fill="#313132"/>
</svg>
