<svg width="38" height="38" viewBox="0 0 38 38" fill="none" xmlns="http://www.w3.org/2000/svg">
<path d="M7.12494 20.5834C4.94313 20.5834 3.16663 22.3599 3.16663 24.5417C3.16663 26.7235 4.94313 28.5001 7.12494 28.5001C9.30675 28.5001 11.0832 26.7236 11.0832 24.5418C11.0832 22.3599 9.30675 20.5834 7.12494 20.5834ZM7.12494 26.9168C5.81549 26.9168 4.74994 25.8512 4.74994 24.5418C4.74994 23.2323 5.81549 22.1668 7.12494 22.1668C8.43438 22.1668 9.49994 23.2323 9.49994 24.5418C9.49994 25.8511 8.43438 26.9168 7.12494 26.9168Z" fill="#2C2C2E"/>
<path d="M30.8749 20.5834C28.6931 20.5834 26.9166 22.3599 26.9166 24.5417C26.9166 26.7235 28.6931 28.5001 30.8749 28.5001C33.0567 28.5001 34.8332 26.7236 34.8332 24.5418C34.8332 22.3599 33.0567 20.5834 30.8749 20.5834ZM30.8749 26.9168C29.5655 26.9168 28.4999 25.8512 28.4999 24.5418C28.4999 23.2323 29.5655 22.1668 30.8749 22.1668C32.1844 22.1668 33.2499 23.2323 33.2499 24.5418C33.2499 25.8511 32.1844 26.9168 30.8749 26.9168Z" fill="#2C2C2E"/>
<path d="M33.25 15.8333H31.9105C31.4212 15.8333 30.9415 15.6655 30.5583 15.3583L24.32 10.3676C23.6202 9.80875 22.7414 9.5 21.8468 9.5H10.4025C9.07569 9.5 7.84544 10.1587 7.10919 11.2623L5.76175 13.2857C5.358 13.889 4.6835 14.25 3.95831 14.25C1.7765 14.25 0 16.0265 0 18.2083V21.375C0 23.5568 1.7765 25.3333 3.95831 25.3333C4.39531 25.3333 4.75 24.9786 4.75 24.5416C4.75 24.1046 4.39531 23.75 3.95831 23.75C2.64887 23.75 1.58331 22.6844 1.58331 21.375V18.2083C1.58331 16.8989 2.64887 15.8333 3.95831 15.8333C5.2155 15.8333 6.38081 15.2095 7.07906 14.1629L8.4265 12.1409C8.86825 11.4791 9.60769 11.0832 10.4025 11.0832H21.8468C22.3851 11.0832 22.9108 11.2685 23.332 11.6042L29.5703 16.5932C30.2306 17.1237 31.0634 17.4165 31.9121 17.4165H33.25C35.5728 17.4165 36.4167 19.7836 36.4167 21.3749C36.4167 22.9344 35.2229 23.7499 34.0417 23.7499C33.6047 23.7499 33.25 24.1045 33.25 24.5415C33.25 24.9785 33.6047 25.3332 34.0417 25.3332C36.2979 25.3333 38 23.6313 38 21.375C38 18.6881 36.3359 15.8333 33.25 15.8333Z" fill="#2C2C2E"/>
<path d="M27.7083 23.75H10.2917C9.85469 23.75 9.5 24.1047 9.5 24.5417C9.5 24.9787 9.85469 25.3334 10.2917 25.3334H27.7084C28.1454 25.3334 28.5001 24.9787 28.5001 24.5417C28.5001 24.1047 28.1453 23.75 27.7083 23.75Z" fill="#2C2C2E"/>
<path d="M26.125 15.8333H19V13.4583C19 13.0213 18.6453 12.6666 18.2083 12.6666C17.7713 12.6666 17.4166 13.0213 17.4166 13.4583V16.625C17.4166 17.062 17.7713 17.4167 18.2083 17.4167H26.125C26.562 17.4167 26.9167 17.062 26.9167 16.625C26.9167 16.188 26.562 15.8333 26.125 15.8333Z" fill="#2C2C2E"/>
<path d="M15.0417 15.8333H9.98921L11.001 13.813C11.1957 13.4219 11.0374 12.9469 10.6463 12.7506C10.2536 12.5558 9.78021 12.7126 9.58383 13.1053L8.00052 16.2719C7.87702 16.5157 7.89127 16.8087 8.03533 17.0414C8.17939 17.2742 8.43433 17.4167 8.70827 17.4167H15.0416C15.4786 17.4167 15.8333 17.062 15.8333 16.625C15.8333 16.188 15.4787 15.8333 15.0417 15.8333Z" fill="#2C2C2E"/>
<path d="M21.375 19H19.7917C19.3547 19 19 19.3547 19 19.7917C19 20.2287 19.3547 20.5834 19.7917 20.5834H21.375C21.812 20.5834 22.1667 20.2287 22.1667 19.7917C22.1667 19.3547 21.812 19 21.375 19Z" fill="#2C2C2E"/>
</svg>
