<svg width="70" height="54" viewBox="0 0 70 54" fill="none" xmlns="http://www.w3.org/2000/svg">
<path d="M14.3925 13.6326C13.0972 14.9031 12.8164 17.4818 13.5816 21.1084C13.6141 21.262 13.6569 21.545 13.6909 21.9132C16.3231 21.3083 20.0867 20.821 25.3859 20.821L25.6059 20.8218L25.8177 20.821C25.9949 20.821 26.1694 20.8218 26.3433 20.8228L26.4894 20.3907L18.9589 20.4546L18.2777 16.9193L27.3578 17.4181L27.2111 19.3304C28.2968 18.5458 32.5283 16.1902 44.1828 16.1902L44.4027 16.191L44.6146 16.1902C50.9021 16.1902 55.0281 16.8759 57.6665 17.6306C57.6796 15.8046 57.2668 14.4483 56.4349 13.6324L56.8404 12.8564L61.0152 12.4393V8.59213C60.9957 8.59142 60.9772 8.59 60.957 8.59H57.0254L54.7127 10.9891L52.0628 3.09281L52.0404 3.03508C52.0404 3.03508 48.7141 0 35.6295 0C35.5566 0 35.4857 0.000567379 35.4138 0.000851032C35.3413 0.000709206 35.2705 0 35.1979 0C22.1133 0 18.7872 3.03508 18.7872 3.03508L18.7646 3.09281L16.1147 10.9891L13.8023 8.59H9.87041C9.85027 8.59 9.83169 8.59142 9.81226 8.59213V12.4393L13.9872 12.8564L14.3925 13.6326ZM21.0951 4.29252C21.451 4.07595 22.3455 3.66848 24.4063 3.30129C27.05 2.83015 30.6807 2.59131 35.1979 2.59131C35.2707 2.59131 35.3419 2.59145 35.4138 2.59174C35.4858 2.59145 35.5567 2.59131 35.6295 2.59131C40.1467 2.59131 43.7776 2.83015 46.4211 3.30129C48.4817 3.66848 49.3765 4.07595 49.7324 4.29252L52.5352 12.6442H35.4138H18.2923L21.0951 4.29252Z" fill="#FE584A"/>
<path d="M47.0282 34.9188L51.2033 34.5018V30.6546C51.1839 30.6539 51.165 30.6526 51.1449 30.6526H47.2133L44.9006 33.0515L42.2507 25.1553L42.228 25.0976C42.228 25.0976 38.902 22.0625 25.8174 22.0625C25.7445 22.0625 25.6737 22.0631 25.6015 22.0634C25.5292 22.0632 25.4584 22.0625 25.3857 22.0625C12.301 22.0625 8.97492 25.0976 8.97492 25.0976L8.95223 25.1553L6.30248 33.0515L3.98986 30.6526H0.0582907C0.0381513 30.6526 0.019572 30.6539 0 30.6546V34.5018L4.17495 34.9188L4.58029 35.6949C3.28498 36.9653 3.00417 39.544 3.76932 43.1707C3.8286 43.4513 3.92292 44.1613 3.93356 45.0407V53.3389C3.93356 53.4517 4.02475 53.5429 4.13736 53.5429H10.6407C10.7533 53.5429 10.8446 53.4517 10.8446 53.3389L10.8455 46.6949H25.6017H40.3579L40.3588 53.3389C40.3588 53.4517 40.45 53.5429 40.5628 53.5429H47.0661C47.1789 53.5429 47.2701 53.4517 47.2701 53.3389V45.0407C47.2805 44.1615 47.3747 43.4515 47.4343 43.1707C48.1994 39.544 47.9185 36.9653 46.6232 35.6949L47.0282 34.9188ZM17.3181 42.4475L9.14681 42.517L8.46562 38.9815L17.5456 39.4805L17.3181 42.4475ZM8.48023 34.7066L11.283 26.3547C11.6388 26.1382 12.5335 25.7308 14.5942 25.3635C17.2379 24.8924 20.8686 24.6535 25.3858 24.6535C25.4586 24.6535 25.5296 24.6538 25.6017 24.654C25.6737 24.6538 25.7448 24.6535 25.8175 24.6535C30.3347 24.6535 33.9656 24.8924 36.6091 25.3635C38.6698 25.7308 39.5643 26.1382 39.9203 26.3547L42.7231 34.7066H25.6017H8.48023ZM42.0565 42.517L33.8852 42.4475L33.6577 39.4805L42.7377 38.9815L42.0565 42.517Z" fill="#FE584A"/>
<path d="M70 29.87V26.0228C69.9805 26.0221 69.9617 26.0207 69.9418 26.0207H66.01L63.6975 28.4198L61.0476 20.5235L61.0249 20.4658C61.0249 20.4658 57.6989 17.4307 44.6143 17.4307C44.5414 17.4307 44.4705 17.4312 44.3986 17.4315C44.3263 17.4314 44.2553 17.4307 44.1829 17.4307C31.0981 17.4307 27.7721 20.4658 27.7721 20.4658L27.7496 20.5235L27.6431 20.8407C29.1871 20.8752 30.5857 20.9532 31.8515 21.063C32.2738 20.9532 32.7802 20.8407 33.3913 20.7318C36.0348 20.2607 39.6657 20.0218 44.1829 20.0218C44.2555 20.0218 44.3267 20.022 44.3986 20.0223C44.4706 20.022 44.5418 20.0218 44.6143 20.0218C49.1315 20.0218 52.7624 20.2607 55.4059 20.7318C57.4668 21.099 58.3613 21.5065 58.717 21.723L61.52 30.0748H52.4411L52.444 30.6534L52.421 34.8488L61.5345 34.35L60.8533 37.8853L52.682 37.8158L52.513 35.6016L48.378 36.0301C49.1112 37.4761 49.2829 39.4963 48.8946 42.0634H59.1549L59.1558 48.7072C59.1558 48.8198 59.247 48.9112 59.3597 48.9112H65.863C65.9758 48.9112 66.067 48.8197 66.067 48.7072V40.409C66.0778 39.5299 66.1719 38.8199 66.2312 38.539C66.9965 34.9122 66.7157 32.3338 65.4204 31.0632L65.8253 30.2872L70 29.87Z" fill="#FE584A"/>
</svg>
