<svg width="71" height="84" viewBox="0 0 71 84" fill="none" xmlns="http://www.w3.org/2000/svg">
<path d="M70.4921 21.6284C70.449 19.3605 70.4078 17.2181 70.4078 15.1454C70.4078 13.5217 69.0918 12.2052 67.4676 12.2052C54.8933 12.2052 45.3196 8.59153 37.3395 0.83252C36.1979 -0.277703 34.3813 -0.277311 33.2401 0.83252C25.2608 8.59153 15.6886 12.2052 3.11512 12.2052C1.49134 12.2052 0.174913 13.5217 0.174913 15.1454C0.174913 17.2185 0.134142 19.3617 0.0906271 21.63C-0.312377 42.7352 -0.86435 71.6398 34.3268 83.8377C34.6388 83.9459 34.9642 84 35.2896 84C35.615 84 35.9408 83.9459 36.2524 83.8377C71.4463 71.6394 70.8951 42.734 70.4921 21.6284ZM35.29 77.9396C5.10897 66.9758 5.56529 42.9582 5.97026 21.7421C5.99456 20.4688 6.01809 19.2347 6.03455 18.0249C17.8111 17.5278 27.2283 13.9592 35.29 6.93639C43.3524 13.9592 52.7713 17.5282 64.5486 18.0249C64.5651 19.2343 64.5886 20.4676 64.6129 21.7401C65.0175 42.9571 65.4734 66.9754 35.29 77.9396Z" fill="#FE584A"/>
<path d="M45.4141 31.7863L31.2231 45.9765L25.1675 39.9209C24.0192 38.773 22.1575 38.773 21.0096 39.9209C19.8614 41.0695 19.8614 42.9308 21.0096 44.0791L29.1442 52.2137C29.7181 52.7876 30.4708 53.0746 31.2231 53.0746C31.9754 53.0746 32.7281 52.7876 33.302 52.2137L49.5716 35.9445C50.7202 34.7963 50.7202 32.9345 49.572 31.7867C48.4241 30.6384 46.5624 30.638 45.4141 31.7863Z" fill="#FE584A"/>
</svg>
