<svg width="70" height="70" viewBox="0 0 70 70" fill="none" xmlns="http://www.w3.org/2000/svg">
<path d="M59.746 10.2497C53.1344 3.64014 44.346 0 35 0C25.654 0 16.8656 3.64014 10.254 10.2497C3.64164 16.86 0 25.6478 0 34.9941C0 44.3455 3.64164 53.137 10.254 59.7488C16.8649 66.3595 25.6534 70 35 70C43.2523 70 51.2656 67.0718 57.5635 61.7548C57.9962 61.3895 58.0509 60.7425 57.6856 60.3098C57.3204 59.8771 56.6735 59.8224 56.2408 60.1877C50.3121 65.1928 42.7688 67.9492 35 67.9492C26.2011 67.9492 17.9277 64.5219 11.7039 58.2988C5.479 52.0741 2.05078 43.7977 2.05078 34.9941C2.05078 16.8291 16.8317 2.05078 35 2.05078C53.1683 2.05078 67.9492 16.8291 67.9492 34.9941C67.9492 43.114 64.9708 50.9149 59.5623 56.9599C59.1847 57.382 59.2208 58.0303 59.6429 58.4078C60.0651 58.7854 60.7132 58.7494 61.0909 58.3274C66.8359 51.9057 70 43.619 70 34.9941C70 25.6478 66.3584 16.86 59.746 10.2497Z" fill="#FE584A"/>
<path d="M34.9998 4.77832C18.3397 4.77832 4.78564 18.3348 4.78564 34.9981C4.78564 51.661 18.3397 65.2173 34.9998 65.2173C51.6602 65.2173 65.2145 51.6611 65.2145 34.9981C65.2145 18.3348 51.6602 4.77832 34.9998 4.77832ZM6.83643 34.9981C6.83643 19.8963 18.7802 7.53348 33.7157 6.85959L28.3907 30.8774L9.83289 47.6316C7.91732 43.8297 6.83643 39.5381 6.83643 34.9981ZM33.9737 15.17V32.9872L18.607 42.473L30.0079 32.1802C30.1265 32.0731 30.2179 31.9404 30.2756 31.793C30.2949 31.7439 30.3104 31.693 30.3218 31.6411L33.9737 15.17ZM34.9998 63.1665C24.8952 63.1665 16.0179 57.8155 11.0478 49.7987L26.6262 43.9001C27.1557 43.6996 27.4224 43.1077 27.2219 42.578C27.0213 42.0484 26.4296 41.7818 25.8998 41.9822L19.1914 44.5223L35.0001 34.7637L50.8117 44.5241L35.3624 38.6742C35.1282 38.5857 34.8702 38.5857 34.636 38.6742L30.0327 40.4172C29.5032 40.6178 29.2364 41.2096 29.437 41.7393C29.6376 42.2689 30.2293 42.5357 30.7591 42.3351L34.9993 40.7295L58.9521 49.7991C53.9817 57.8156 45.1044 63.1665 34.9998 63.1665ZM41.6096 30.8774L40.5239 25.9798C40.4014 25.4271 39.8532 25.0782 39.301 25.2007C38.7481 25.3232 38.3992 25.8709 38.5218 26.4238L39.6693 31.5999C39.7079 31.8161 39.8149 32.0216 39.9906 32.1802L51.3875 42.4695L36.0266 32.9872V15.1787L36.3339 16.565C36.3368 16.5778 36.341 16.59 36.3443 16.6026L37.5931 22.235C37.7156 22.7877 38.2634 23.1368 38.816 23.0141C39.3689 22.8916 39.7178 22.3439 39.5952 21.7911L36.2845 6.85959C51.22 7.53375 63.1637 19.8964 63.1637 34.9981C63.1637 39.538 62.0828 43.8297 60.1673 47.6314L41.6096 30.8774Z" fill="#FE584A"/>
</svg>
