<svg width="70" height="83" viewBox="0 0 70 83" fill="none" xmlns="http://www.w3.org/2000/svg">
<path d="M69.8953 5.87344C69.0353 2.94402 66.1895 1.0566 62.7959 0.381537C62.4502 0.312393 62.1004 0.301012 61.761 0.331188C61.664 0.320669 61.5746 0.30015 61.4725 0.296702C44.2364 -0.355258 26.9985 0.266009 9.75736 0.296702C9.66673 0.296702 9.5886 0.312393 9.50329 0.318083C9.3981 0.310668 9.3007 0.29446 9.18874 0.296702C6.78653 0.332222 4.24488 0.882792 2.66904 2.51898C1.05239 4.19742 0.650485 6.31556 0.948839 8.41972C0.994772 8.74182 1.08848 9.05013 1.23161 9.33429C1.2273 12.5862 1.18896 15.8347 1.0161 19.0832C0.97242 19.2601 0.947813 19.4473 0.950069 19.651C0.95212 19.8857 0.949043 20.1208 0.951094 20.3554C0.950068 20.3593 0.950069 20.3636 0.950069 20.3673C0.950069 20.3716 0.951094 20.375 0.951094 20.3798C1.1219 38.7801 -0.390165 57.1615 0.0972488 75.5631C0.10053 75.6865 0.126981 75.796 0.147281 75.9098C0.126981 76.1611 0.135798 76.4185 0.19834 76.6759C1.07413 80.2737 4.6472 82.4215 8.90638 82.4924C9.02613 82.4943 9.13174 82.4775 9.2437 82.4696C9.32223 82.4748 9.39257 82.4915 9.47479 82.4924C26.1443 82.7298 42.8134 82.9591 59.4851 82.9705C59.6776 82.9705 59.8558 82.9503 60.0285 82.9248C60.1316 82.9407 60.2315 82.9607 60.3367 82.9705C63.4252 83.2297 66.3437 81.7587 67.6204 79.3971C67.8205 79.0301 67.9235 78.6467 67.9465 78.2683C67.9692 78.1642 68.0016 78.0644 68.01 77.9514C69.9312 54.3278 69.4593 30.6446 69.9999 6.98597C70.0019 6.86371 69.981 6.75525 69.9677 6.64317C69.9839 6.39005 69.9701 6.13088 69.8953 5.87344ZM64.3131 6.98648C63.7769 30.5151 64.2337 54.0683 62.3493 77.5622C62.2931 77.6376 62.2357 77.7138 62.2191 77.7435C62.1565 77.8014 62.0971 77.8626 62.0284 77.9178C61.9929 77.9485 61.9796 77.9624 61.9576 77.9844C61.9265 77.9994 61.8982 78.0125 61.8471 78.0404C61.768 78.0806 61.6837 78.1132 61.6025 78.1499C61.7442 78.0781 61.4151 78.1761 61.2475 78.2207C61.2174 78.2226 61.1977 78.2235 61.16 78.227C60.8829 78.2401 60.6061 78.2147 60.3344 78.192C60.1335 78.1744 59.9368 78.184 59.7451 78.2139C59.6565 78.2076 59.5753 78.192 59.4828 78.192C42.8101 78.1806 26.141 77.9512 9.47254 77.714C9.35176 77.7121 9.24759 77.7288 9.13666 77.7367C9.05751 77.7305 8.98615 77.7157 8.90392 77.714C8.0105 77.699 7.48043 77.5922 6.7408 77.1963C6.80375 77.2148 6.59645 77.0598 6.45803 76.9599C6.43876 76.9161 6.13528 76.5975 6.12215 76.5792C5.99625 76.4032 5.87178 76.1002 5.76392 75.7279C5.76618 75.6721 5.78012 75.6229 5.7791 75.5643C5.29169 57.1548 6.80581 38.7651 6.63294 20.3566C6.8866 16.4602 6.91674 12.5624 6.91674 8.66026C6.91674 8.18884 6.77156 7.79777 6.54457 7.47084C6.53411 7.15115 6.54047 6.83216 6.56794 6.50954C6.58517 6.56593 6.69918 6.06036 6.70123 6.05243C6.72358 5.99777 6.73978 5.96087 6.75331 5.92586C6.79965 5.85327 6.84969 5.78309 6.89972 5.71308C6.85379 5.79223 6.99343 5.64428 7.10539 5.52789C7.08488 5.60238 7.80196 5.1851 7.35638 5.33822C8.09724 5.08389 8.50448 5.08647 9.18895 5.07561C9.27958 5.07389 9.35976 5.05768 9.44608 5.05061C9.55025 5.05837 9.64663 5.0763 9.75756 5.07561C26.9987 5.04543 44.2366 4.42382 61.4727 5.07561C61.5186 5.07733 61.5572 5.0694 61.6019 5.0694C61.8935 5.13682 62.1871 5.2039 62.4723 5.28839C62.5193 5.31598 62.9128 5.46134 62.9419 5.47496C63.1178 5.55376 63.2784 5.65066 63.4426 5.7455C63.3678 5.71877 63.7615 5.99673 63.8009 6.02949C63.8435 6.06639 63.8665 6.0826 63.8936 6.10398C63.9153 6.13554 63.9413 6.1714 63.9873 6.23055C64.009 6.25555 64.1706 6.53265 64.2225 6.5992C64.262 6.69594 64.2953 6.79439 64.3277 6.89423C64.3236 6.92596 64.3141 6.95303 64.3131 6.98648Z" fill="#FE584A"/>
<path d="M55.6346 11.3241C42.0908 10.9016 28.5404 11.0784 14.9927 10.8687C13.805 10.8494 13.0309 11.3679 12.6513 12.0572C12.2343 12.4216 11.973 12.9306 12.0116 13.6031C12.2619 17.9302 12.2833 22.2587 12.2833 26.5904C12.2833 27.3696 12.6696 27.9352 13.2282 28.3012C13.6643 28.7718 14.3381 29.0963 15.2637 29.0963H54.5515C55.7281 29.0963 56.4998 28.5754 56.884 27.8907C57.2244 27.5536 57.4649 27.1206 57.5326 26.5895C58.0616 22.4238 58.3249 18.2473 58.3448 14.0576C58.3459 13.805 58.296 13.5817 58.223 13.3719C58.0762 12.3406 57.2185 11.373 55.6346 11.3241ZM52.3413 24.5381H17.699C17.6906 21.5095 17.652 18.4825 17.5197 15.4555C29.3126 15.6 41.1067 15.5076 52.8969 15.8088C52.8315 18.7246 52.6503 21.6342 52.3413 24.5381Z" fill="#FE584A"/>
<path d="M23.0467 33.3315H14.7833C14.4099 33.3315 14.0861 33.3924 13.7935 33.4864C12.7424 33.7035 11.851 34.393 11.851 35.573C11.851 38.0422 11.8297 40.5079 11.5844 42.9701C11.5266 43.5425 11.6974 43.9962 12.0015 44.3393C12.3851 45.0232 13.1318 45.5722 14.2501 45.6598C16.9115 45.8664 19.5772 45.884 22.247 45.884C22.65 45.884 23.002 45.8174 23.3102 45.7088C24.3775 45.4872 25.3288 44.8033 25.4459 43.6424C25.6807 41.329 25.7125 39.014 25.7125 36.6936C25.7125 36.437 25.6583 36.212 25.5822 36.0015C25.8295 34.7577 24.9849 33.3315 23.0467 33.3315ZM20.2785 41.3901C19.1997 41.3813 18.1226 41.3642 17.0448 41.3256C17.1182 40.1563 17.1477 38.9857 17.1629 37.8146H20.3716C20.3618 39.0071 20.3404 40.1996 20.2785 41.3901Z" fill="#FE584A"/>
<path d="M39.0409 33.3315H30.7774C30.4042 33.3315 30.0804 33.3924 29.7876 33.4864C28.7365 33.7035 27.8451 34.393 27.8451 35.573C27.8451 38.0422 27.8238 40.5079 27.5786 42.9701C27.5207 43.5425 27.6915 43.9962 27.9956 44.3393C28.3795 45.0232 29.1259 45.5722 30.2443 45.6598C32.9057 45.8664 35.5714 45.884 38.241 45.884C38.6441 45.884 38.996 45.8174 39.3044 45.7088C40.3717 45.4872 41.3223 44.8033 41.4398 43.6424C41.6742 41.329 41.7066 39.014 41.7066 36.6936C41.7066 36.437 41.6523 36.212 41.5764 36.0015C41.8233 34.7577 40.9786 33.3315 39.0409 33.3315ZM36.2722 41.3901C35.1939 41.3813 34.1167 41.3642 33.0389 41.3256C33.1124 40.1563 33.1421 38.9857 33.1571 37.8146H36.3657C36.3557 39.0071 36.3348 40.1996 36.2722 41.3901Z" fill="#FE584A"/>
<path d="M55.0342 33.3315H46.7707C46.3969 33.3315 46.0731 33.3924 45.7805 33.4864C44.7298 33.7035 43.8384 34.393 43.8384 35.573C43.8384 38.0422 43.8167 40.5079 43.5719 42.9701C43.5136 43.5425 43.6842 43.9962 43.9883 44.3393C44.3724 45.0232 45.1192 45.5722 46.2374 45.6598C48.8988 45.8664 51.5645 45.884 54.2343 45.884C54.6372 45.884 54.9893 45.8174 55.2975 45.7088C56.3648 45.4872 57.3156 44.8033 57.4331 43.6424C57.6675 41.329 57.6997 39.014 57.6997 36.6936C57.6997 36.437 57.6456 36.212 57.5695 36.0015C57.8166 34.7577 56.9722 33.3315 55.0342 33.3315ZM52.2653 41.3901C51.1866 41.3813 50.11 41.3642 49.0323 41.3256C49.1051 40.1563 49.1352 38.9857 49.1498 37.8146H52.3589C52.3488 39.0071 52.3279 40.1996 52.2653 41.3901Z" fill="#FE584A"/>
<path d="M23.0467 47.6772H14.7833C14.4099 47.6772 14.0861 47.7378 13.7935 47.8321C12.7424 48.0494 11.851 48.7384 11.851 49.9188C11.851 52.3879 11.8297 54.8536 11.5844 57.3158C11.5266 57.8884 11.6974 58.3419 12.0015 58.685C12.3851 59.3691 13.1318 59.9179 14.2501 60.0055C16.9115 60.2121 19.5772 60.2297 22.247 60.2297C22.65 60.2297 23.002 60.1631 23.3102 60.0545C24.3775 59.8331 25.3288 59.149 25.4459 57.9881C25.6807 55.6747 25.7125 53.3597 25.7125 51.0393C25.7125 50.7829 25.6583 50.5579 25.5822 50.3466C25.8295 49.1034 24.9849 47.6772 23.0467 47.6772ZM20.2785 55.7353C19.1997 55.7265 18.1226 55.7099 17.0448 55.6715C17.1182 54.5017 17.1477 53.3309 17.1629 52.1603H20.3716C20.3618 53.3528 20.3404 54.5455 20.2785 55.7353Z" fill="#FE584A"/>
<path d="M39.0409 47.6772H30.7774C30.4042 47.6772 30.0804 47.7378 29.7876 47.8321C28.7365 48.0494 27.8451 48.7384 27.8451 49.9188C27.8451 52.3879 27.8238 54.8536 27.5786 57.3158C27.5207 57.8884 27.6915 58.3419 27.9956 58.685C28.3795 59.3691 29.1259 59.9179 30.2443 60.0055C32.9057 60.2121 35.5714 60.2297 38.241 60.2297C38.6441 60.2297 38.996 60.1631 39.3044 60.0545C40.3717 59.8331 41.3223 59.149 41.4398 57.9881C41.6742 55.6747 41.7066 53.3597 41.7066 51.0393C41.7066 50.7829 41.6523 50.5579 41.5764 50.3466C41.8233 49.1034 40.9786 47.6772 39.0409 47.6772ZM36.2722 55.7353C35.1939 55.7265 34.1167 55.7099 33.0389 55.6715C33.1124 54.5017 33.1421 53.3309 33.1571 52.1603H36.3657C36.3557 53.3528 36.3348 54.5455 36.2722 55.7353Z" fill="#FE584A"/>
<path d="M55.0342 47.6772H46.7707C46.3969 47.6772 46.0731 47.7378 45.7805 47.8321C44.7298 48.0494 43.8384 48.7384 43.8384 49.9188C43.8384 52.3879 43.8167 54.8536 43.5719 57.3158C43.5136 57.8884 43.6842 58.3419 43.9883 58.685C44.3724 59.3691 45.1192 59.9179 46.2374 60.0055C48.8988 60.2121 51.5645 60.2297 54.2343 60.2297C54.6372 60.2297 54.9893 60.1631 55.2975 60.0545C56.3648 59.8331 57.3156 59.149 57.4331 57.9881C57.6675 55.6747 57.6997 53.3597 57.6997 51.0393C57.6997 50.7829 57.6456 50.5579 57.5695 50.3466C57.8166 49.1034 56.9722 47.6772 55.0342 47.6772ZM52.2653 55.7353C51.1866 55.7265 50.11 55.7099 49.0323 55.6715C49.1051 54.5017 49.1352 53.3309 49.1498 52.1603H52.3589C52.3488 53.3528 52.3279 54.5455 52.2653 55.7353Z" fill="#FE584A"/>
<path d="M23.0467 62.0229H14.7833C14.4099 62.0229 14.0861 62.0835 13.7935 62.178C12.7424 62.3951 11.851 63.0841 11.851 64.2645C11.851 66.7337 11.8297 69.1993 11.5844 71.6615C11.5266 72.2341 11.6974 72.6876 12.0015 73.0309C12.3851 73.7148 13.1318 74.2636 14.2501 74.3512C16.9115 74.5578 19.5772 74.5754 22.247 74.5754C22.65 74.5754 23.002 74.5088 23.3102 74.4002C24.3775 74.1788 25.3288 73.4949 25.4459 72.3339C25.6807 70.0206 25.7125 67.7054 25.7125 65.3852C25.7125 65.1286 25.6583 64.9036 25.5822 64.6925C25.8295 63.4495 24.9849 62.0229 23.0467 62.0229ZM20.2785 70.0811C19.1997 70.0723 18.1226 70.056 17.0448 70.0173C17.1182 68.8476 17.1477 67.6769 17.1629 66.5063H20.3716C20.3618 67.6987 20.3404 68.8912 20.2785 70.0811Z" fill="#FE584A"/>
<path d="M39.0409 62.0229H30.7774C30.4042 62.0229 30.0804 62.0835 29.7876 62.178C28.7365 62.3951 27.8451 63.0841 27.8451 64.2645C27.8451 66.7337 27.8238 69.1993 27.5786 71.6615C27.5207 72.2341 27.6915 72.6876 27.9956 73.0309C28.3795 73.7148 29.1259 74.2636 30.2443 74.3512C32.9057 74.5578 35.5714 74.5754 38.241 74.5754C38.6441 74.5754 38.996 74.5088 39.3044 74.4002C40.3717 74.1788 41.3223 73.4949 41.4398 72.3339C41.6742 70.0206 41.7066 67.7054 41.7066 65.3852C41.7066 65.1286 41.6523 64.9036 41.5764 64.6925C41.8233 63.4495 40.9786 62.0229 39.0409 62.0229ZM36.2722 70.0811C35.1939 70.0723 34.1167 70.056 33.0389 70.0173C33.1124 68.8476 33.1421 67.6769 33.1571 66.5063H36.3657C36.3557 67.6987 36.3348 68.8912 36.2722 70.0811Z" fill="#FE584A"/>
<path d="M55.0342 62.0229H46.7707C46.3969 62.0229 46.0731 62.0835 45.7805 62.178C44.7298 62.3951 43.8384 63.0841 43.8384 64.2645C43.8384 66.7337 43.8167 69.1993 43.5719 71.6615C43.5136 72.2341 43.6842 72.6876 43.9883 73.0309C44.3724 73.7148 45.1192 74.2636 46.2374 74.3512C48.8988 74.5578 51.5645 74.5754 54.2343 74.5754C54.6372 74.5754 54.9893 74.5088 55.2975 74.4002C56.3648 74.1788 57.3156 73.4949 57.4331 72.3339C57.6675 70.0206 57.6997 67.7054 57.6997 65.3852C57.6997 65.1286 57.6456 64.9036 57.5695 64.6925C57.8166 63.4495 56.9722 62.0229 55.0342 62.0229ZM52.2653 70.0811C51.1866 70.0723 50.11 70.056 49.0323 70.0173C49.1051 68.8476 49.1352 67.6769 49.1498 66.5063H52.3589C52.3488 67.6987 52.3279 68.8912 52.2653 70.0811Z" fill="#FE584A"/>
</svg>
