<svg width="75" height="47" viewBox="0 0 75 47" fill="none" xmlns="http://www.w3.org/2000/svg">
<path d="M59.2189 32.1394C57.7471 29.0707 52.4814 24.8112 47.394 20.6956C44.5564 18.4018 41.8752 16.2331 40.1659 14.5238C39.7377 14.0925 39.0971 13.955 38.5315 14.1581C37.4785 14.5394 36.8284 14.8331 36.316 15.0612C35.5348 15.4112 35.2723 15.53 34.219 15.6362C33.7534 15.683 33.3347 15.9331 33.0753 16.3205C30.8659 19.6236 28.5784 19.3424 27.0502 18.83C26.5627 18.6675 26.4753 18.458 26.4284 18.2581C26.1003 16.8863 27.7472 13.6925 29.8815 11.558C34.9597 6.4768 37.5784 5.20487 43.1096 7.6768C49.3846 10.483 55.6721 12.68 55.7347 12.7018C56.5566 12.9861 57.4409 12.5549 57.7252 11.7392C58.0065 10.9236 57.5783 10.033 56.7627 9.74867C56.7001 9.72684 50.5377 7.57367 44.3877 4.8205C37.2221 1.61732 33.2908 3.7267 27.6751 9.34555C25.5376 11.483 22.6345 15.808 23.3845 18.98C23.7063 20.33 24.6564 21.33 26.0688 21.7955C29.6095 22.9643 32.8406 21.8455 35.2469 18.6518C36.2407 18.4988 36.7813 18.2738 37.5937 17.9081C37.8874 17.7769 38.2312 17.6238 38.6875 17.4394C40.4751 19.1175 42.8875 21.0706 45.4282 23.1237C50.0219 26.8393 55.2313 31.0519 56.4032 33.4894C56.9814 34.6925 56.3594 35.4769 55.9375 35.8362C55.3188 36.3675 54.472 36.5363 54.0126 36.2143C53.5063 35.8674 52.847 35.8456 52.3251 36.158C51.8001 36.4705 51.5064 37.0611 51.572 37.6674C51.6782 38.6612 50.7688 39.23 50.3751 39.4268C49.375 39.9331 48.3313 39.8456 47.9407 39.4831C47.5031 39.0769 46.875 38.9581 46.3188 39.1643C45.7626 39.3737 45.375 39.8862 45.3187 40.4799C45.225 41.5049 44.4656 42.4892 43.4749 42.8736C42.9968 43.0548 42.3031 43.1642 41.6812 42.5954C41.2938 42.2455 40.7562 42.111 40.2532 42.2329C39.7438 42.3578 39.3344 42.7267 39.1563 43.2173C39.097 43.3736 38.9625 43.7486 37.5 43.7486C36.4594 43.7486 34.5874 43.0454 33.6719 42.4391C32.575 41.7173 25.6969 36.5861 19.7563 31.611C18.922 30.9079 17.4782 29.4016 16.2032 28.0703C15.0719 26.8891 14.0376 25.8173 13.5063 25.3673C12.8407 24.8048 11.8563 24.8891 11.3032 25.5517C10.747 26.211 10.8281 27.1986 11.4876 27.7548C11.972 28.1642 12.9095 29.1548 13.9439 30.2329C15.3376 31.6891 16.7782 33.1954 17.747 34.0079C23.5658 38.8799 30.5596 44.1392 31.9532 45.0548C33.1033 45.8111 35.5813 46.8735 37.5001 46.8735C39.0407 46.8735 40.2252 46.5203 41.047 45.8298C42.1469 46.258 43.397 46.2611 44.6001 45.7923C46.022 45.2423 47.1907 44.1329 47.8532 42.7892C49.0844 43.0517 50.4939 42.8673 51.775 42.2237C53.0282 41.5925 53.9344 40.6268 54.3844 39.4986C55.6282 39.5642 56.9093 39.1236 57.9687 38.2142C59.7627 36.68 60.2563 34.2926 59.2189 32.1394Z" fill="#FE584A"/>
<path d="M31.2498 6.24902H17.1873C16.3248 6.24902 15.6248 6.94907 15.6248 7.81157C15.6248 8.67407 16.3248 9.37412 17.1873 9.37412H31.2498C32.1123 9.37412 32.8123 8.67407 32.8123 7.81157C32.8123 6.94907 32.1123 6.24902 31.2498 6.24902Z" fill="#FE584A"/>
<path d="M63.7968 28.8145C63.3123 28.0989 62.3436 27.9021 61.6281 28.3896L57.0594 31.4583C56.3438 31.9395 56.1531 32.9114 56.6344 33.627C56.9375 34.0739 57.4313 34.3176 57.9345 34.3176C58.2314 34.3176 58.5345 34.2333 58.8033 34.0521L63.372 30.9834C64.0874 30.502 64.278 29.5302 63.7968 28.8145Z" fill="#FE584A"/>
<path d="M54.0968 36.2713C52.978 35.3901 47.9749 30.2683 44.8811 27.0433C44.2842 26.4182 43.2937 26.3964 42.6717 26.9964C42.0467 27.5933 42.0279 28.5838 42.6248 29.2058C43.428 30.0433 50.5123 37.4277 52.1592 38.7277C52.4435 38.9527 52.7873 39.0621 53.1248 39.0621C53.5842 39.0621 54.0436 38.8559 54.356 38.4652C54.8906 37.7901 54.775 36.8057 54.0968 36.2713Z" fill="#FE584A"/>
<path d="M47.8528 39.4047C45.9809 37.9078 41.2779 32.9109 40.2153 31.7547C39.6277 31.1172 38.6433 31.0797 38.0058 31.661C37.3714 32.2453 37.3278 33.236 37.9121 33.8704C37.9683 33.9297 43.5809 39.9892 45.8996 41.8455C46.1871 42.0735 46.534 42.186 46.8746 42.186C47.3309 42.186 47.787 41.9829 48.0964 41.6017C48.6342 40.9266 48.5247 39.9422 47.8528 39.4047Z" fill="#FE584A"/>
<path d="M41.6344 42.5521C39.4062 40.674 34.8469 35.8209 33.9563 34.8677C33.3657 34.2365 32.375 34.2021 31.7469 34.7927C31.1157 35.3833 31.0843 36.3708 31.6719 37.0021C32.9532 38.3739 37.3156 42.999 39.6188 44.9427C39.9125 45.1896 40.2687 45.3114 40.625 45.3114C41.0687 45.3114 41.5125 45.1209 41.8219 44.7552C42.3781 44.0927 42.2937 43.1083 41.6344 42.5521Z" fill="#FE584A"/>
<path d="M18.2625 3.55217C15.5843 1.01462 4.875 0.1927 1.6563 0.00212411C1.2126 -0.0197021 0.803174 0.127076 0.490723 0.424C0.178125 0.717701 0 1.1302 0 1.56145V29.6864C0 30.5489 0.700049 31.249 1.56255 31.249H10.9375C11.6125 31.249 12.2125 30.8147 12.4219 30.1709C12.6499 29.4708 18.0344 12.9459 18.7437 4.82087C18.7844 4.34582 18.6094 3.87707 18.2625 3.55217ZM9.79687 28.124H3.12495V3.2365C8.14687 3.63332 13.5656 4.49583 15.5344 5.45208C14.7063 12.2958 10.9594 24.4552 9.79687 28.124Z" fill="#FE584A"/>
<path d="M73.4375 3.12354C61.1687 3.12354 54.3624 6.26416 54.0781 6.39541C53.6719 6.58598 53.3687 6.93916 53.2437 7.36733C53.1188 7.79551 53.1812 8.25488 53.4156 8.63603C55.3468 11.7455 61.3937 29.0142 62.5562 33.2267C62.7437 33.9047 63.3594 34.3735 64.0625 34.3735H73.4375C74.3 34.3735 75 33.6734 75 32.8109V4.68594C75 3.82036 74.3 3.12354 73.4375 3.12354ZM71.8751 31.2485H65.2313C63.75 26.4235 59.375 13.8422 56.9344 8.64233C59.3187 7.83301 64.4407 6.44229 71.8751 6.26738V31.2485Z" fill="#FE584A"/>
</svg>
