<svg width="70" height="71" viewBox="0 0 70 71" fill="none" xmlns="http://www.w3.org/2000/svg">
<path d="M59.2009 11.5251H51.217C51.1485 10.4509 50.258 9.60027 49.1667 9.60027H49.0607V5.18905C49.0606 2.32787 46.7089 0 43.8182 0H26.1818C23.2911 0 20.9393 2.32787 20.9393 5.18905V9.60027H20.8333C19.742 9.60027 18.8514 10.4509 18.783 11.5251H10.7991C4.84443 11.5251 0 16.3695 0 22.3242V61.392C0 66.2561 3.95717 70.2131 8.82107 70.2131H61.1791C66.043 70.2131 70 66.2561 70 61.392V22.3242C70 16.3695 65.1554 11.5251 59.2009 11.5251ZM36.2811 15.6391C38.1168 16.0056 39.7136 17.0459 40.7893 18.5852C41.8953 20.1682 42.3189 22.0872 41.9817 23.9886C41.8487 24.7387 41.6031 25.4496 41.2527 26.111L35.4726 26.7744C34.8817 26.8423 34.3493 27.1623 34.0122 27.6523L25.5452 39.9632C25.2361 40.4126 25.1182 40.9665 25.2173 41.5031C25.3165 42.0397 25.6249 42.5146 26.0744 42.8238L34.5187 48.6315C34.8748 48.8764 35.2807 48.9938 35.6824 48.9938C36.3368 48.9938 36.9802 48.6824 37.3792 48.1023L45.8461 35.7915C46.1831 35.3016 46.2916 34.6897 46.1435 34.1138L44.6791 28.4172C45.344 27.272 45.7984 26.0267 46.0325 24.7072C46.5616 21.7237 45.8972 18.7128 44.1614 16.229C44.0198 16.0261 43.8702 15.831 43.7173 15.6394H51.1452V66.0991H18.8548V15.6391H36.2811ZM41.9261 34.2312L35.1551 44.076L30.1007 40.5996L36.8716 30.7549L40.9133 30.2911L41.9261 34.2312ZM25.0535 5.18905C25.0535 4.57619 25.5385 4.11405 26.1819 4.11405H43.8182C44.4615 4.11405 44.9467 4.57619 44.9467 5.18905V9.60027H44.8405C43.7492 9.60027 42.8587 10.4509 42.7902 11.5251H27.2099C27.1415 10.4509 26.2509 9.60027 25.1596 9.60027H25.0535V5.18905ZM4.11405 61.392V22.3242C4.11405 18.638 7.11292 15.6391 10.7991 15.6391H14.7406V66.0991H8.82107C6.22565 66.0991 4.11405 63.9876 4.11405 61.392ZM65.886 61.392C65.886 63.9876 63.7745 66.0991 61.1791 66.0991H55.2594V15.6391H59.2009C62.8871 15.6391 65.886 18.638 65.886 22.3242V61.392Z" fill="#FE584A"/>
</svg>
