<svg width="70" height="83" viewBox="0 0 70 83" fill="none" xmlns="http://www.w3.org/2000/svg">
<path d="M34.7019 44.3427C34.7871 44.3427 34.8723 44.3427 34.9745 44.3427C35.0086 44.3427 35.0427 44.3427 35.0768 44.3427C35.1279 44.3427 35.1961 44.3427 35.2472 44.3427C40.2404 44.2575 44.2793 42.5022 47.2617 39.145C53.8227 31.7488 52.7321 19.0698 52.6128 17.8598C52.1867 8.77652 47.8922 4.43086 44.3475 2.40289C41.706 0.886173 38.6215 0.0681671 35.179 0H35.0597C35.0427 0 35.0086 0 34.9916 0H34.8893C32.9977 0 29.2826 0.306752 25.7208 2.33472C22.1421 4.3627 17.7794 8.70835 17.3533 17.8598C17.234 19.0698 16.1434 31.7488 22.7045 39.145C25.6697 42.5022 29.7086 44.2575 34.7019 44.3427ZM21.9035 18.2858C21.9035 18.2347 21.9205 18.1836 21.9205 18.1495C22.4829 5.93054 31.1572 4.61832 34.8723 4.61832H34.9405C34.9745 4.61832 35.0257 4.61832 35.0768 4.61832C39.6781 4.72057 47.5002 6.59517 48.0285 18.1495C48.0285 18.2006 48.0285 18.2517 48.0456 18.2858C48.0626 18.4051 49.2555 29.9935 43.8363 36.0945C41.689 38.5144 38.826 39.7073 35.0597 39.7414C35.0257 39.7414 35.0086 39.7414 34.9745 39.7414C34.9405 39.7414 34.9234 39.7414 34.8893 39.7414C31.1401 39.7073 28.2601 38.5144 26.1298 36.0945C20.7276 30.0276 21.8864 18.3881 21.9035 18.2858Z" fill="#FE584A"/>
<path d="M69.9952 65.3731C69.9952 65.3561 69.9952 65.339 69.9952 65.322C69.9952 65.1857 69.9782 65.0493 69.9782 64.896C69.8759 61.5217 69.6544 53.6313 62.2583 51.1092C62.2071 51.0921 62.139 51.0751 62.0878 51.058C54.402 49.0982 48.0113 44.6674 47.9432 44.6162C46.9036 43.8834 45.4721 44.1391 44.7393 45.1786C44.0065 46.2182 44.2621 47.6497 45.3017 48.3825C45.5914 48.587 52.374 53.3075 60.8608 55.4889C64.8316 56.9034 65.2747 61.1468 65.3939 65.0323C65.3939 65.1857 65.3939 65.322 65.411 65.4583C65.428 66.9921 65.3258 69.3609 65.0531 70.7243C62.2923 72.2921 51.4708 77.7114 35.0085 77.7114C18.6143 77.7114 7.72456 72.2751 4.94675 70.7072C4.67409 69.3439 4.55479 66.9751 4.58888 65.4413C4.58888 65.305 4.60592 65.1686 4.60592 65.0153C4.72521 61.1297 5.1683 56.8863 9.13903 55.4719C17.6258 53.2905 24.4085 48.5529 24.6982 48.3654C25.7377 47.6326 25.9934 46.2011 25.2606 45.1616C24.5278 44.122 23.0963 43.8664 22.0567 44.5992C21.9885 44.6503 15.632 49.0812 7.91202 51.041C7.84386 51.058 7.79273 51.0751 7.74161 51.0921C0.345474 53.6313 0.123931 61.5217 0.0216803 64.8789C0.0216803 65.0323 0.0216799 65.1686 0.00463817 65.305C0.00463817 65.322 0.00463817 65.339 0.00463817 65.3561C-0.0124036 66.2423 -0.029445 70.7924 0.873769 73.076C1.04419 73.5191 1.35094 73.894 1.75994 74.1497C2.2712 74.4905 14.5242 82.2956 35.0255 82.2956C55.5268 82.2956 67.7798 74.4734 68.291 74.1497C68.683 73.894 69.0068 73.5191 69.1772 73.076C70.0293 70.8095 70.0123 66.2593 69.9952 65.3731Z" fill="#FE584A"/>
</svg>
