<svg width="70" height="54" viewBox="0 0 70 54" fill="none" xmlns="http://www.w3.org/2000/svg">
<path d="M66.0305 15.8933C66.5334 16.3962 67.3382 16.3962 67.8267 15.8933L69.623 14.097C70.1259 13.594 70.1259 12.7893 69.623 12.3007L65.5563 8.23403C65.0533 7.73108 64.2486 7.73108 63.76 8.23403L61.9638 10.0303C61.4608 10.5332 61.4608 11.338 61.9638 11.8265L62.1362 11.999L60.8717 13.2635C57.6815 10.7344 53.816 9.05312 49.5768 8.56454V6.26533H50.9707C51.6748 6.26533 52.2353 5.69053 52.2353 5.00077V1.26456C52.2353 0.560431 51.6605 0 50.9707 0H42.8947C42.1906 0 41.6302 0.574801 41.6302 1.26456V5.00077C41.6302 5.7049 42.205 6.26533 42.8947 6.26533H44.2886V8.56454C40.0495 9.06749 36.1696 10.7488 32.9938 13.2635L31.7292 11.999L31.9017 11.8265C32.4046 11.3236 32.4046 10.5189 31.9017 10.0303L30.1054 8.23403C29.6025 7.73108 28.7977 7.73108 28.3092 8.23403L24.2424 12.3007C23.7395 12.8037 23.7395 13.6084 24.2424 14.097L26.0387 15.8933C26.5417 16.3962 27.3464 16.3962 27.835 15.8933L28.0074 15.7208L29.272 16.9854C26.2543 20.8078 24.458 25.6361 24.458 30.8668C24.458 43.2538 34.5458 53.3415 46.9327 53.3415C59.3197 53.3415 69.4074 43.2538 69.4074 30.8668C69.4074 25.6361 67.5968 20.8078 64.5935 16.9854L65.858 15.7208L66.0305 15.8933ZM46.9327 48.1396C37.4198 48.1396 29.6743 40.3941 29.6743 30.8812C29.6743 21.3682 37.4198 13.6228 46.9327 13.6228C56.4457 13.6228 64.1911 21.3682 64.1911 30.8812C64.1911 40.3941 56.4457 48.1396 46.9327 48.1396Z" fill="#FE584A"/>
<path d="M9.12482 36.9026C7.88899 36.9026 6.89746 37.9085 6.89746 39.1299C6.89746 40.3657 7.90336 41.3573 9.12482 41.3573H21.21C21.4543 41.3573 21.6699 41.3142 21.8854 41.2423C21.3106 39.8484 20.8364 38.397 20.5059 36.8882H9.12482V36.9026Z" fill="#FE584A"/>
<path d="M21.8712 20.549C21.67 20.4916 21.4401 20.4341 21.2102 20.4341H2.22735C0.991532 20.4341 0 21.44 0 22.6614C0 23.8973 1.0059 24.8888 2.22735 24.8888H20.4917C20.8222 23.423 21.282 21.9573 21.8712 20.549Z" fill="#FE584A"/>
<path d="M19.8302 30.881C19.8302 30.1337 19.8733 29.4008 19.9308 28.668H5.33087C4.09505 28.668 3.10352 29.6739 3.10352 30.8953C3.10352 32.1168 4.10942 33.1227 5.33087 33.1227H19.9165C19.8733 32.3898 19.8302 31.6427 19.8302 30.881Z" fill="#FE584A"/>
<path d="M57.7822 24.4577C57.4086 23.8398 56.6326 23.5955 55.986 23.926L48.2118 27.7341C47.249 27.3461 46.1281 27.3892 45.1653 27.9496C43.5415 28.9124 42.9955 31.0105 43.9582 32.6343C44.921 34.2581 47.0191 34.8041 48.6429 33.8414C49.6057 33.2666 50.1805 32.3038 50.2954 31.2835L57.3798 26.2971C57.9834 25.8802 58.1558 25.0899 57.7822 24.4577ZM48.3698 31.2546C48.1543 32.0593 47.3352 32.5335 46.5448 32.3324C45.7401 32.1168 45.2659 31.2977 45.4671 30.5074C45.6826 29.7026 46.5017 29.2284 47.2921 29.4296C48.0968 29.6309 48.571 30.4643 48.3698 31.2546Z" fill="#FE584A"/>
<path d="M51.7896 22.3167C52.465 22.7047 53.3272 22.4604 53.7008 21.785C54.0888 21.1096 53.8445 20.2474 53.1692 19.8738C52.4938 19.4858 51.6459 19.7301 51.2579 20.4055C50.9993 20.8653 51.028 21.397 51.2723 21.8138C51.4016 22.0006 51.5741 22.1875 51.7896 22.3167Z" fill="#FE584A"/>
<path d="M46.8467 21.0233C47.6227 21.0233 48.2406 20.3911 48.2406 19.6151C48.2406 18.8391 47.6083 18.2212 46.8324 18.2212C46.0564 18.2212 45.4385 18.8535 45.4385 19.6295C45.4385 19.8881 45.5103 20.1324 45.6253 20.3336C45.8696 20.7505 46.3294 21.0379 46.8467 21.0233Z" fill="#FE584A"/>
<path d="M47.0335 40.7681C46.2576 40.7824 45.6396 41.4147 45.6396 42.1907C45.6396 42.4494 45.7115 42.6793 45.8265 42.8805C46.0707 43.2972 46.5306 43.5846 47.0479 43.5702C47.8239 43.5559 48.4418 42.9236 48.4274 42.1476C48.4418 41.4002 47.8095 40.7681 47.0335 40.7681Z" fill="#FE584A"/>
<path d="M51.9474 39.4027C51.2864 39.7907 51.0565 40.6529 51.4588 41.314C51.8468 41.9893 52.709 42.2049 53.3844 41.8025C54.0454 41.4145 54.2754 40.5523 53.873 39.8913C53.4706 39.2302 52.6084 39.0146 51.9474 39.4027Z" fill="#FE584A"/>
<path d="M57.4367 35.2356C56.7613 34.862 55.8991 35.0919 55.5255 35.7673C55.2669 36.2271 55.2956 36.7444 55.5399 37.1755C55.6548 37.3767 55.8417 37.5635 56.0572 37.6785C56.7326 38.0665 57.5948 37.8222 57.9684 37.1468C58.342 36.4714 58.1121 35.6092 57.4367 35.2356Z" fill="#FE584A"/>
<path d="M37.0463 31.0106C37.0463 30.2346 36.3996 29.6167 35.638 29.6167C34.8621 29.6311 34.2441 30.2634 34.2441 31.0393C34.2441 31.298 34.316 31.5279 34.431 31.7291C34.6752 32.1458 35.1351 32.4332 35.6524 32.4189C36.4428 32.4187 37.0607 31.7866 37.0463 31.0106Z" fill="#FE584A"/>
<path d="M36.5138 35.4364C35.8528 35.8244 35.6229 36.6866 36.0252 37.3476C36.4132 38.0086 37.2754 38.2385 37.9508 37.8362C38.6118 37.4482 38.8274 36.586 38.4394 35.9106C38.037 35.2639 37.1748 35.0342 36.5138 35.4364Z" fill="#FE584A"/>
<path d="M56.8049 30.8091C56.8049 31.0678 56.8768 31.2977 57.0061 31.5133C57.2504 31.93 57.7102 32.203 58.2276 32.203C59.0035 32.203 59.6215 31.5564 59.6215 30.7948C59.6215 30.0188 58.9892 29.4009 58.2132 29.4009C57.4228 29.4009 56.7906 30.0475 56.8049 30.8091Z" fill="#FE584A"/>
<path d="M36.4137 26.5989C37.089 26.9869 37.9513 26.7426 38.3249 26.0672C38.6985 25.3918 38.4686 24.544 37.7788 24.156C37.1034 23.7824 36.2556 24.0123 35.8676 24.6877C35.6233 25.1332 35.6377 25.6649 35.882 26.096C36.0113 26.2971 36.1837 26.4697 36.4137 26.5989Z" fill="#FE584A"/>
<path d="M41.8883 22.4173C41.8883 22.4173 41.9027 22.4173 41.9027 22.4029C41.9171 22.4029 41.9171 22.4029 41.9171 22.3885C41.9171 22.3885 41.9171 22.3885 41.9314 22.3885C42.5924 22.0005 42.808 21.1383 42.42 20.4773C42.032 19.8019 41.1698 19.5864 40.4944 19.9744C40.4944 19.9744 40.4801 19.9744 40.4801 19.9887C40.4657 19.9887 40.4657 20.0031 40.4513 20.0031C39.7903 20.3911 39.5604 21.2533 39.9627 21.9143C40.3651 22.5899 41.2273 22.8054 41.8883 22.4173Z" fill="#FE584A"/>
<path d="M42.0754 39.5032C41.4 39.1152 40.5378 39.3595 40.1642 40.0349C39.9055 40.4947 39.9343 41.0264 40.1786 41.4432C40.2935 41.6443 40.4803 41.8312 40.6959 41.9605C41.3713 42.3341 42.2335 42.0898 42.6071 41.4288C42.9951 40.739 42.7508 39.8912 42.0754 39.5032Z" fill="#FE584A"/>
</svg>
