<svg width="70" height="70" viewBox="0 0 70 70" fill="none" xmlns="http://www.w3.org/2000/svg">
<path d="M35.0001 0C15.7011 0 0 15.7011 0 34.9999C0 54.2985 15.7011 69.9997 35.0001 69.9997C54.299 69.9997 70 54.2985 70 34.9999C70 15.7011 54.2989 0 35.0001 0ZM35.0001 64.2975C18.8463 64.2975 5.70278 51.1532 5.70278 34.9999C5.70278 18.8463 18.8463 5.70262 35.0001 5.70262C51.1537 5.70262 64.2974 18.8463 64.2974 34.9999C64.2974 51.1534 51.1537 64.2975 35.0001 64.2975ZM53.0786 25.9976C53.6636 26.845 53.4513 28.0059 52.6039 28.5911L35.7094 40.2633C35.3924 40.4816 35.0214 40.5927 34.6494 40.5927C34.3531 40.5927 34.0555 40.5217 33.7832 40.3798C33.1703 40.0559 32.785 39.4212 32.785 38.7285V13.7476C32.785 12.7185 33.6203 11.8832 34.6494 11.8832C35.6788 11.8832 36.5136 12.7185 36.5136 13.7476V35.1746L50.4843 25.5224C51.333 24.9399 52.496 25.1525 53.0786 25.9976Z" fill="#FE584A"/>
</svg>
