<svg width="84" height="84" viewBox="0 0 84 84" fill="none" xmlns="http://www.w3.org/2000/svg">
<path d="M58.8621 70.9604C60.657 70.9604 62.112 69.5054 62.112 67.7105C62.112 65.9157 60.657 64.4607 58.8621 64.4607C57.0673 64.4607 55.6123 65.9157 55.6123 67.7105C55.6123 69.5054 57.0673 70.9604 58.8621 70.9604Z" fill="#FE584A"/>
<path d="M51.3865 29.0353C53.1814 29.0353 54.6364 27.5803 54.6364 25.7855C54.6364 23.9906 53.1814 22.5356 51.3865 22.5356C49.5917 22.5356 48.1367 23.9906 48.1367 25.7855C48.1367 27.5803 49.5917 29.0353 51.3865 29.0353Z" fill="#FE584A"/>
<path d="M79.988 51.4609H83.2378V31.9614H74.9506C71.3666 31.9614 68.4508 29.0455 68.4508 25.4615C68.4508 23.0295 69.7939 20.8195 71.9559 19.6935L74.7238 18.2518L66.4482 0.659912L0.11618 31.9469L0.123014 31.9614H0.0400391V51.4609H3.29004C6.87405 51.4609 9.78988 54.3767 9.78988 57.9607C9.78988 61.5447 6.87405 64.4606 3.29004 64.4606H0.0400391V83.9599H83.2377V64.4604H79.9878C76.4038 64.4604 73.488 61.5446 73.488 57.9605C73.488 54.3767 76.4038 51.4609 79.988 51.4609ZM44.2653 18.3097C45.0544 19.8767 46.9506 20.5408 48.548 19.7895C50.1473 19.0372 50.8447 17.1491 50.1362 15.5407L63.3363 9.31449L66.347 15.7141C63.5815 18.1482 61.9508 21.6697 61.9508 25.4617C61.9508 27.8286 62.5899 30.0477 63.6998 31.9615H15.322L44.2653 18.3097ZM76.7378 70.5489V77.4601H62.1133C62.1133 75.6652 60.6583 74.2102 58.8635 74.2102C57.0686 74.2102 55.6137 75.6652 55.6137 77.4601H6.53988V70.5489C12.1405 69.1022 16.2896 64.0068 16.2896 57.9605C16.2896 51.9143 12.1403 46.8187 6.53988 45.3722V38.461H55.6135C55.6135 40.2559 57.0685 41.7109 58.8633 41.7109C60.6582 41.7109 62.1132 40.2559 62.1132 38.461H76.7377V45.3722C71.1371 46.8188 66.988 51.9143 66.988 57.9605C66.9882 64.007 71.1372 69.1022 76.7378 70.5489Z" fill="#FE584A"/>
<path d="M58.8621 51.4606C60.657 51.4606 62.112 50.0056 62.112 48.2108C62.112 46.4159 60.657 44.9609 58.8621 44.9609C57.0673 44.9609 55.6123 46.4159 55.6123 48.2108C55.6123 50.0056 57.0673 51.4606 58.8621 51.4606Z" fill="#FE584A"/>
<path d="M58.8621 61.2109C60.657 61.2109 62.112 59.7559 62.112 57.961C62.112 56.1662 60.657 54.7112 58.8621 54.7112C57.0673 54.7112 55.6123 56.1662 55.6123 57.961C55.6123 59.7559 57.0673 61.2109 58.8621 61.2109Z" fill="#FE584A"/>
</svg>
