<svg width="70" height="46" viewBox="0 0 70 46" fill="none" xmlns="http://www.w3.org/2000/svg">
<path d="M65.6639 14.628C65.6168 14.5737 65.5768 14.5209 65.5211 14.468L63.068 12.1007C65.1025 11.6393 67.2926 9.93489 67.2926 8.18621C67.2926 6.14895 64.4653 5.42604 62.0522 5.42604C59.5291 5.42604 59.2363 7.15472 59.2063 8.37623L52.8772 2.27442C51.5914 1.00149 49.1526 0 47.3296 0H35.0029H35H22.6704C20.8488 0 18.4115 1.00149 17.1243 2.27442L10.7966 8.37623C10.7637 7.15472 10.4709 5.42604 7.95065 5.42604C5.53474 5.42604 2.70879 6.14895 2.70879 8.18621C2.70879 9.93489 4.9004 11.6393 6.93485 12.1007L4.48179 14.468C4.42608 14.5209 4.3875 14.5737 4.33893 14.628C1.71443 16.871 0 21.0313 0 24.05V33.0206C0 35.1979 0.858642 37.1737 2.2459 38.6466V42.1254C2.2459 44.1598 3.94889 45.8185 6.04335 45.8185H10.6352C12.7296 45.8185 14.4312 44.1627 14.4312 42.1254V41.2354H35H35.0029H55.5703V42.1254C55.5703 44.1627 57.2704 45.8185 59.3677 45.8185H63.9581C66.054 45.8185 67.7541 44.1598 67.7541 42.1254V38.6466C69.1428 37.1737 70 35.1979 70 33.0206V24.05C70.0029 21.0313 68.2884 16.871 65.6639 14.628ZM19.4487 4.98602C20.3388 4.24454 21.8946 3.68165 22.6704 3.68165H35H35.0029H47.3324C48.1082 3.68165 49.6641 4.24454 50.5541 4.98602L58.8534 13.0294H35.0029H35H11.1509L19.4487 4.98602ZM2.84738 22.6928C2.84738 20.4841 4.57609 18.6911 6.71055 18.6911C8.84358 18.6911 15.8141 22.7828 15.8141 24.9915C15.8141 27.2002 8.84358 26.6888 6.71055 26.6888C4.57609 26.6888 2.84738 24.9029 2.84738 22.6928ZM14.4326 37.3023H13.6968H12.9611L8.59642 37.3094C7.38489 36.9323 6.53053 36.4922 5.9262 36.0193C5.62046 35.7808 5.38615 35.5322 5.20328 35.285C5.01898 35.035 4.88468 34.7893 4.79753 34.5435C4.25463 33.0092 5.37615 31.5991 5.37615 31.5991H12.8253L17.7915 37.2994L14.4326 37.3023ZM45.7123 37.3051H35.0029H35H24.2906C22.0575 37.3051 20.2445 35.4922 20.2445 33.2606H35H35.0029H49.7583C49.7583 35.495 47.9453 37.3051 45.7123 37.3051ZM46.6524 30.5004H35.0029H35H23.3505C20.9217 30.5004 18.9501 27.506 18.9501 23.8129H35H35.0029H51.0527C51.0527 27.5074 49.0812 30.5004 46.6524 30.5004ZM65.2067 34.5464C65.1182 34.7921 64.9839 35.0378 64.7996 35.2864C64.6181 35.5336 64.3838 35.7822 64.0767 36.0208C63.4738 36.4937 62.618 36.9365 61.4064 37.3108L57.0418 37.3037H56.306H55.5703H52.2085L57.1775 31.6034H64.6253C64.6253 31.6019 65.7482 33.0092 65.2067 34.5464ZM63.2923 26.6888C61.1607 26.6888 54.1901 27.1974 54.1901 24.9915C54.1901 22.7857 61.1607 18.6911 63.2923 18.6911C65.4268 18.6911 67.1555 20.4841 67.1555 22.6928C67.1555 24.9001 65.4268 26.6888 63.2923 26.6888Z" fill="#FE584A"/>
</svg>
