<svg width="68" height="70" viewBox="0 0 68 70" fill="none" xmlns="http://www.w3.org/2000/svg">
<path d="M11.7544 26.1235L13.2979 30.3084C13.3559 30.4659 13.5059 30.5704 13.6736 30.5704C13.8413 30.5704 13.9913 30.4659 14.0493 30.3084L15.5928 26.1235C16.8421 22.7357 19.5127 20.0651 22.9004 18.816L27.0852 17.2725C27.2425 17.2145 27.347 17.0645 27.347 16.8968C27.347 16.7291 27.2425 16.5791 27.0852 16.5211L22.9001 14.9776C19.5125 13.7283 16.8419 11.0579 15.5928 7.67026L14.0493 3.48544C13.9913 3.32812 13.8413 3.22363 13.6736 3.22363C13.5059 3.22363 13.3559 3.32812 13.2979 3.48544L11.7544 7.67026C10.5051 11.0579 7.83472 13.7283 4.44686 14.9776L0.261802 16.5211C0.104485 16.5791 0 16.7291 0 16.8968C0 17.0645 0.104485 17.2145 0.261802 17.2725L4.44663 18.816C7.83449 20.0651 10.5051 22.7354 11.7544 26.1235Z" fill="#FE584A"/>
<path d="M45.6838 43.7991L41.4993 42.2559C38.1114 41.0066 35.4408 38.3362 34.1917 34.9486L32.6482 30.7638C32.5902 30.6064 32.4402 30.502 32.2725 30.502C32.1048 30.502 31.9548 30.6064 31.8968 30.7638L30.3533 34.9483C29.104 38.3362 26.4334 41.0066 23.0457 42.2559L18.8609 43.7991C18.7036 43.8572 18.5991 44.0072 18.5991 44.1749C18.5991 44.3426 18.7036 44.4926 18.8609 44.5506L23.046 46.0943C26.4336 47.3436 29.104 50.014 30.3533 53.4016L31.8968 57.5867C31.9548 57.744 32.1048 57.8485 32.2725 57.8485C32.4402 57.8485 32.5902 57.744 32.6482 57.5867L34.1917 53.4016C35.441 50.014 38.1114 47.3434 41.499 46.0943L45.6841 44.5506C45.8414 44.4926 45.9459 44.3426 45.9459 44.1749C45.9459 44.0072 45.8412 43.8572 45.6838 43.7991Z" fill="#FE584A"/>
<path d="M67.3426 25.8994L64.4984 24.8506C62.1962 24.0015 60.3813 22.1866 59.5322 19.8843L58.4833 17.0404C58.4437 16.9335 58.3418 16.8623 58.2279 16.8623C58.1139 16.8623 58.0121 16.9335 57.9724 17.0404L56.9238 19.8841C56.0747 22.1866 54.2598 24.0015 51.9574 24.8506L49.1134 25.8994C49.0065 25.9388 48.9353 26.0407 48.9353 26.1546C48.9353 26.2685 49.0065 26.3707 49.1134 26.4101L51.9576 27.4587C54.2598 28.308 56.0747 30.1229 56.9238 32.4251L57.9724 35.2696C58.0121 35.3764 58.1139 35.4477 58.2279 35.4477C58.3418 35.4477 58.4437 35.3764 58.4833 35.2696L59.5322 32.4251C60.3813 30.1227 62.1959 28.308 64.4984 27.4589L67.3426 26.4101C67.4494 26.3707 67.5207 26.2685 67.5207 26.1546C67.5207 26.0407 67.4494 25.9388 67.3426 25.8994Z" fill="#FE584A"/>
<path d="M60.4529 63.3404L58.4689 62.6085C56.8629 62.0163 55.5971 60.7505 55.0048 59.1447L54.273 57.1612C54.2456 57.0866 54.1744 57.0371 54.0949 57.0371C54.0154 57.0371 53.9442 57.0866 53.9168 57.1612L53.1849 59.1447C52.5927 60.7507 51.3269 62.0165 49.7211 62.6085L47.7371 63.3404C47.6626 63.3678 47.613 63.439 47.613 63.5185C47.613 63.598 47.6626 63.6692 47.7371 63.6966L49.7209 64.4284C51.3271 65.0207 52.5929 66.2867 53.1852 67.8927L53.9171 69.8765C53.9444 69.951 54.0156 70.0006 54.0951 70.0006C54.1746 70.0006 54.2458 69.951 54.2732 69.8765L55.0051 67.8927C55.5973 66.2867 56.8632 65.0207 58.4693 64.4284L60.4531 63.6966C60.5277 63.6692 60.5772 63.598 60.5772 63.5185C60.5772 63.439 60.5277 63.3678 60.4529 63.3404Z" fill="#FE584A"/>
<path d="M45.8218 6.30354L43.8378 5.5719C42.2318 4.97967 40.966 3.71382 40.374 2.10786L39.6421 0.124297C39.6147 0.0495301 39.5435 0 39.464 0C39.3845 0 39.3133 0.0495301 39.2859 0.124061L38.5543 2.10739C37.9621 3.71335 36.696 4.97943 35.09 5.57167L33.106 6.3033C33.0315 6.33066 32.9819 6.40189 32.9819 6.48137C32.9819 6.56086 33.0315 6.63209 33.106 6.65945L35.0898 7.39131C36.696 7.98355 37.9621 9.24964 38.5543 10.8558L39.2859 12.8394C39.3133 12.9139 39.3845 12.9635 39.464 12.9635C39.5435 12.9635 39.6147 12.9139 39.6421 12.8394L40.374 10.8556C40.9662 9.2494 42.232 7.98355 43.8382 7.39155L45.822 6.65968C45.8966 6.63232 45.9461 6.56109 45.9461 6.48161C45.9461 6.40212 45.8966 6.33089 45.8218 6.30354Z" fill="#FE584A"/>
<path d="M21.4875 59.2618L18.9922 58.342C16.9723 57.5972 15.3798 56.0046 14.6344 53.9845L13.7144 51.4891C13.6797 51.3955 13.5903 51.333 13.4903 51.333C13.3903 51.333 13.3009 51.3955 13.2662 51.4891L12.3462 53.9843C11.6013 56.0044 10.0088 57.5969 7.98844 58.342L5.49354 59.2618C5.39943 59.2963 5.3374 59.3859 5.3374 59.4859C5.3374 59.5859 5.39967 59.6755 5.49354 59.71L7.98868 60.6303C10.0086 61.3751 11.6011 62.9676 12.3462 64.9878L13.2662 67.4831C13.3009 67.577 13.3903 67.6393 13.4903 67.6393C13.5903 67.6393 13.6799 67.577 13.7144 67.4831L14.6347 64.9875C15.3795 62.9676 16.9718 61.3754 18.9919 60.6303L21.4875 59.71C21.5814 59.6755 21.6437 59.5859 21.6437 59.4859C21.6437 59.3859 21.5816 59.2963 21.4875 59.2618Z" fill="#FE584A"/>
</svg>
